<svg width="1920" height="701" viewBox="0 0 1920 701" fill="none" xmlns="http://www.w3.org/2000/svg">
<g opacity="0.3">
<path d="M720.952 700.402C713.662 700.402 706.567 699.83 699.748 698.688C685.447 696.292 672.234 691.374 660.477 684.068C647.84 676.218 636.757 665.521 627.532 652.276C608.992 625.653 599.717 593.771 590.746 562.937C588.983 556.883 587.161 550.622 585.311 544.548C572.688 503.147 556.687 466.882 536.396 433.68C495.918 367.45 438.993 310.926 371.771 270.222C294.031 223.15 210.447 199.701 136.415 204.197C92.9028 206.841 35.411 231.98 9.71648 274.915C-5.53212 300.396 -6.76171 328.673 6.16309 356.685L5.90644 356.803C-0.870402 342.112 -3.82311 327.385 -2.86707 313.029C-1.99 299.86 2.16128 286.987 9.47395 274.768C21.1043 255.333 40.2842 238.108 64.9409 224.953C87.7249 212.799 113.101 205.327 136.398 203.912C175.141 201.561 216.347 206.779 258.869 219.423C297.415 230.887 335.451 247.895 371.918 269.976C439.179 310.704 496.138 367.258 536.638 433.528C556.94 466.752 572.95 503.037 585.582 544.461C587.435 550.535 589.257 556.798 591.016 562.853C599.979 593.664 609.249 625.523 627.763 652.107C645.668 677.819 669.905 693.395 699.796 698.401C741.19 705.335 791.456 690.832 834.255 659.604C895.932 614.604 938.736 549.103 980.134 485.761C987.39 474.659 994.892 463.178 1002.32 452.092C1021.6 423.305 1047.72 386.002 1078.76 352.77C1110.49 318.802 1142.73 293.845 1177.32 276.471C1198.5 265.836 1220.94 258.671 1244.03 255.175C1265.35 251.945 1287.92 251.745 1311.11 254.575C1350.89 259.432 1393.75 273.15 1442.13 296.512C1537.39 342.515 1632.56 398.354 1724.97 462.479C1812.81 523.428 1898.96 592.395 1981.03 667.46L1980.84 667.668C1810.72 512.063 1629.43 387.273 1442.01 296.765C1336.11 245.631 1252.05 239.261 1177.45 276.722C1101.56 314.83 1048.54 383.604 1002.55 452.247C995.128 463.33 987.627 474.811 980.371 485.914C938.962 549.278 896.144 614.798 834.424 659.83C814.48 674.383 792.043 685.733 769.541 692.653C757.654 696.309 745.838 698.699 734.416 699.759C729.864 700.191 725.372 700.402 720.952 700.402Z" fill="#A1A1A1"/>
<path d="M728.08 684.615C709.489 684.615 692.269 681.077 676.88 674.095C659.719 666.31 644.91 654.246 632.862 638.242C631.796 636.824 630.739 635.358 629.718 633.881C611.376 607.374 601.688 575.906 592.323 545.473C590.428 539.322 588.47 532.961 586.485 526.788C574.66 490.032 560.421 457.637 542.95 427.756C540.798 424.077 538.57 420.391 536.323 416.8C495.25 351.138 437.862 295.331 370.365 255.41C292.063 209.141 208.242 186.662 134.343 192.116C91.1463 195.338 33.9196 220.889 8.1151 263.494C-7.33657 289.006 -9.08505 317.339 3.05292 345.433L2.79345 345.546C-3.56883 330.821 -6.18309 316.065 -4.97324 301.693C-3.8621 288.493 0.458363 275.592 7.87257 263.347C19.6214 243.946 38.7449 226.701 63.1703 213.479C85.7457 201.257 111.011 193.57 134.317 191.834C173.013 188.979 214.263 193.697 256.921 205.857C295.56 216.873 333.776 233.463 370.506 255.167C438.043 295.111 495.461 350.952 536.56 416.65C538.807 420.244 541.038 423.934 543.19 427.615C560.672 457.516 574.919 489.928 586.75 526.703C588.738 532.876 590.695 539.238 592.591 545.391C601.953 575.805 611.632 607.25 629.949 633.72C630.967 635.192 632.025 636.658 633.088 638.073C657.984 671.156 692.193 684.615 728.167 684.615C728.364 684.615 728.559 684.615 728.756 684.615C728.531 684.612 728.305 684.615 728.08 684.615ZM735.753 684.417C769.197 682.701 803.708 669.856 833.314 650.748C897.176 609.361 943.075 545.439 987.464 483.622C989.291 481.074 991.119 478.532 992.946 475.989C996.959 470.408 1001.72 463.801 1006.57 457.141C1028.36 427.271 1054.72 392.517 1085.09 361.235C1117.4 327.949 1149.67 303.249 1183.76 285.719C1204.71 274.96 1226.84 267.381 1249.55 263.192C1270.59 259.311 1292.83 258.214 1315.64 259.931C1355.04 262.899 1397.4 274.151 1445.15 294.333C1491.71 313.979 1529.98 332.473 1565.59 352.533C1616.04 380.98 1664.09 413.755 1704.44 442.064C1798.26 508.066 1890.31 583.012 1978.04 664.822L1977.84 665.028C1890.13 583.229 1798.09 508.289 1704.28 442.295C1663.93 413.989 1615.89 381.219 1565.45 352.781C1529.85 332.726 1491.59 314.239 1445.05 294.598C1341.02 250.632 1258.04 247.889 1183.89 285.973C1106.93 325.542 1052.13 395.16 1006.8 457.31C1001.94 463.97 997.188 470.575 993.175 476.158C991.347 478.698 989.52 481.243 987.692 483.791C943.289 545.628 897.374 609.573 833.466 650.991C817.62 661.217 800.758 669.34 783.346 675.133C767.139 680.519 751.163 683.634 735.753 684.417Z" fill="#A1A1A1"/>
<path d="M735.938 669.189C733.701 669.189 731.479 669.141 729.274 669.042C710.7 668.222 693.511 663.963 678.187 656.378C661.426 648.082 646.905 635.796 635.03 619.856C633.975 618.435 632.923 616.967 631.908 615.49C613.771 589.112 603.681 558.064 593.926 528.043C591.892 521.785 589.789 515.313 587.657 509.033C575.248 472.402 560.634 440.266 542.974 410.788C540.788 407.143 538.526 403.487 536.245 399.925C494.577 334.835 436.727 279.744 368.953 240.607C290.093 195.141 206.035 173.629 132.266 180.041C90.7302 183.708 33.6699 207.803 6.54 252.034C-9.13445 277.588 -11.416 305.997 -0.0591836 334.19L-0.321439 334.294C-6.27198 319.524 -8.54223 304.735 -7.07574 290.337C-5.72771 277.095 -1.22672 264.16 6.30029 251.887C18.1732 232.531 37.2346 215.281 61.4259 201.996C83.7898 189.715 108.94 181.82 132.24 179.762C170.89 176.405 212.186 180.622 254.976 192.297C293.711 202.867 332.105 219.038 369.094 240.364C436.908 279.527 494.789 334.649 536.482 399.775C538.763 403.341 541.028 406.997 543.214 410.647C560.882 440.142 575.504 472.297 587.919 508.949C590.051 515.232 592.155 521.703 594.188 527.961C603.94 557.966 614.022 588.991 632.136 615.337C633.151 616.814 634.198 618.28 635.252 619.695C683.508 684.463 769.027 677.509 832.37 641.89C898.898 604.15 948.338 541.426 996.151 480.767L996.642 480.145C1001.27 474.265 1006.06 468.188 1010.83 462.187C1061.12 398.879 1116.4 333.818 1190.2 294.962C1210.92 284.076 1232.75 276.083 1255.08 271.203C1275.85 266.665 1297.75 264.673 1320.17 265.281C1359.25 266.341 1401.13 275.13 1448.18 292.149C1497.64 309.972 1534.85 326.354 1568.85 345.27C1617.29 372.276 1664.22 406.402 1705.62 436.511C1797.8 503.909 1888.44 579.833 1975.05 662.17L1974.85 662.373C1888.26 580.045 1797.62 504.129 1705.45 436.737C1664.06 406.633 1617.14 372.513 1568.71 345.515C1534.73 326.605 1497.52 310.228 1448.09 292.411C1346.08 255.52 1264.18 256.408 1190.33 295.207C1116.57 334.038 1061.32 399.071 1011.05 462.356C1006.28 468.357 1001.49 474.437 996.862 480.314L996.371 480.937C972.544 511.164 947.907 542.421 921.301 570.34C891.402 601.715 862.357 625.197 832.506 642.129C801.275 659.69 767.256 669.189 735.938 669.189Z" fill="#A1A1A1"/>
<path d="M1971.87 659.715C1886.4 576.857 1797.16 499.965 1706.63 431.178C1702.8 428.286 1698.96 425.38 1695.1 422.465C1655.89 392.807 1615.34 362.14 1571.99 338.249C1529.92 315.135 1487.3 301.002 1451.14 290.227C1351.34 260.298 1270.52 264.816 1196.78 304.441C1121.09 345.239 1062.43 412.975 1015.3 467.404C1012.48 470.671 1009.65 473.943 1006.82 477.219C1004.74 479.637 1002.65 482.055 1000.56 484.471C973.725 515.494 949.316 543.23 922.347 568.539C891.537 597.45 861.84 618.624 831.555 633.273C803.172 647.002 772.853 654.266 744.651 654.269C739.513 654.269 734.451 654.029 729.476 653.542C711.314 651.763 694.5 646.766 679.503 638.687C663.137 629.873 648.904 617.353 637.192 601.472C636.146 600.049 635.102 598.577 634.093 597.098C616.17 570.858 605.688 540.247 595.552 510.645C593.369 504.27 591.11 497.674 588.826 491.273C575.825 454.756 560.833 422.877 542.999 393.811C540.779 390.194 538.481 386.572 536.168 383.04C493.902 318.523 435.593 264.148 367.545 225.791C288.127 181.129 203.835 160.589 130.195 167.952C79.8521 173.085 28.3729 202.923 5.00504 240.51C-10.9148 266.118 -13.7378 294.618 -3.16499 322.929L-3.43006 323.028C-8.96604 308.204 -10.8951 293.369 -9.16347 278.935C-7.57008 265.645 -2.88297 252.667 4.7653 240.361C16.7623 221.061 35.7617 203.811 59.7105 190.479C81.86 178.147 106.881 170.046 130.167 167.673C168.772 163.811 210.11 167.529 253.033 178.719C291.86 188.844 330.437 204.598 367.686 225.543C435.776 263.923 494.117 318.329 536.408 382.885C538.723 386.42 541.022 390.045 543.241 393.661C561.087 422.745 576.085 454.641 589.094 491.174C591.378 497.578 593.637 504.171 595.82 510.55C605.95 540.135 616.427 570.726 634.327 596.934C635.336 598.411 636.377 599.88 637.42 601.3C687.797 669.608 773.42 661.076 831.433 633.016C900.648 599.536 953.614 538.308 1000.35 484.285C1002.44 481.867 1004.52 479.448 1006.61 477.033C1009.44 473.757 1012.26 470.485 1015.09 467.218C1041.99 436.15 1068.56 405.959 1097.77 378.139C1131.35 346.144 1163.7 321.957 1196.65 304.193C1217.16 293.175 1238.68 284.767 1260.62 279.205C1281.13 274.005 1302.69 271.119 1324.71 270.623C1363.54 269.749 1404.93 276.074 1451.23 289.956C1487.39 300.737 1530.04 314.876 1572.13 338.003C1615.5 361.903 1656.06 392.579 1695.28 422.243C1699.13 425.157 1702.97 428.063 1706.81 430.955C1797.34 499.748 1886.59 576.648 1972.07 659.515L1971.87 659.715Z" fill="#A1A1A1"/>
<path d="M1968.88 657.06C1882.92 572.087 1795.09 494.218 1707.81 425.62C1702.59 421.516 1697.24 417.285 1692.08 413.195C1655.07 383.903 1616.81 353.613 1575.26 330.982C1533.76 308.464 1490.77 296.636 1454.19 288.039C1356.82 264.934 1277.07 273.08 1203.23 313.675C1132.79 352.537 1077.61 410.974 1024.24 467.486L1018.38 473.69C1013.76 478.591 1008.97 483.656 1004.25 488.626C950.832 544.814 897.357 597.475 830.601 624.411C814.402 630.947 797.768 635.477 781.157 637.881C763.32 640.46 745.993 640.497 729.656 637.988C711.911 635.263 695.478 629.538 680.813 620.972C664.854 611.65 650.906 598.902 639.36 583.083C638.319 581.651 637.284 580.177 636.283 578.7C618.581 552.616 607.72 522.456 597.218 493.288C594.875 486.78 592.449 480.049 590.001 473.512C576.397 437.109 561.033 405.486 543.029 376.837C540.778 373.257 538.446 369.663 536.097 366.159C493.236 302.214 434.467 248.555 366.14 210.979C286.16 167.126 201.632 147.553 128.118 155.871C78.2354 161.635 26.9903 191.682 3.50399 228.943C-12.6809 254.615 -16.0623 283.225 -6.27631 311.68L-6.54424 311.773C-11.6657 296.884 -13.2477 281.993 -11.2482 267.516C-9.40386 254.17 -4.52218 241.142 3.26146 228.796C15.3881 209.561 34.3199 192.328 58.0149 178.956C79.9444 166.579 104.83 158.284 128.085 155.595C166.645 151.231 208.025 154.447 251.083 165.153C290.007 174.832 328.762 190.166 366.272 210.734C434.639 248.33 493.442 302.023 536.328 366.004C538.677 369.511 541.012 373.107 543.263 376.687C561.278 405.35 576.651 436.99 590.261 473.413C592.709 479.95 595.134 486.684 597.478 493.192C607.974 522.343 618.829 552.489 636.511 578.542C637.51 580.014 638.545 581.485 639.583 582.917C688.746 650.275 770.435 648.384 830.491 624.151C897.193 597.238 950.646 544.597 1004.04 488.434C1008.76 483.465 1013.55 478.4 1018.18 473.498L1024.04 467.294C1050.23 439.555 1077.32 410.869 1106.73 384.185C1140.05 353.963 1171.57 330.819 1203.09 313.427C1223.38 302.271 1244.6 293.448 1266.14 287.208C1286.4 281.339 1307.63 277.557 1329.24 275.964C1367.9 273.114 1408.79 276.976 1454.25 287.763C1490.85 296.366 1533.86 308.196 1575.39 330.734C1616.97 353.374 1655.24 383.672 1692.25 412.972C1697.42 417.062 1702.76 421.29 1707.98 425.397C1795.27 494.001 1883.11 571.876 1969.07 656.857L1968.88 657.06Z" fill="#A1A1A1"/>
<path d="M1965.89 654.404C1880.67 568.488 1794.24 489.643 1708.98 420.064C1702.58 414.835 1696.01 409.398 1689.66 404.141C1654.65 375.165 1618.45 345.202 1578.52 323.721C1537.22 301.589 1494.03 292.16 1457.24 285.857C1362.57 269.393 1283.9 281.17 1209.67 322.915C1144.89 359.499 1091.71 411.345 1040.27 461.484C1034.86 466.761 1029.26 472.215 1023.81 477.5C1017.4 483.707 1012.51 488.423 1007.94 492.786C983.49 516.142 954.375 543.035 923.821 565.404C891.443 589.106 860.638 605.511 829.645 615.557C813.347 620.839 796.784 624.171 780.413 625.456C762.835 626.837 745.815 625.823 729.831 622.437C712.512 618.77 696.463 612.318 682.122 603.262C666.572 593.441 652.914 580.464 641.526 564.696C640.499 563.267 639.47 561.79 638.472 560.308C621.004 534.398 609.779 504.703 598.922 475.987C596.403 469.326 593.8 462.44 591.175 455.751C576.958 419.449 561.219 388.086 543.054 359.862C540.77 356.313 538.404 352.753 536.021 349.278C492.565 285.905 433.333 232.962 364.73 196.167C284.195 153.12 199.429 134.519 126.046 143.787C84.2904 149.176 29.7542 174.003 2.04325 217.315C-14.4321 243.067 -18.386 271.806 -9.38687 300.424L-9.6548 300.509C-14.3616 285.545 -15.5912 270.589 -13.3125 256.055C-11.2087 242.641 -6.12396 229.557 1.80634 217.163C14.0628 198.007 32.924 180.802 56.3567 167.402C78.0663 154.988 102.802 146.504 126.012 143.508C164.527 138.643 205.952 141.357 249.14 151.578C288.157 160.812 327.092 175.728 364.863 195.919C433.505 232.734 492.771 285.708 536.252 349.117C538.635 352.593 541.004 356.158 543.288 359.71C561.462 387.948 577.209 419.328 591.434 455.647C594.063 462.338 596.666 469.225 599.184 475.885C610.033 504.588 621.255 534.266 638.703 560.147C639.701 561.627 640.728 563.101 641.754 564.527C682.655 621.166 752.863 640.142 829.557 615.283C899.012 592.773 955.669 542.322 1007.75 492.577C1012.32 488.214 1017.21 483.498 1023.61 477.292C1029.06 472.007 1034.66 466.552 1040.07 461.276C1065.4 436.593 1091.58 411.069 1119.51 387.17C1151.09 360.141 1180.54 339.04 1209.54 322.664C1229.64 311.361 1250.54 302.124 1271.68 295.213C1291.7 288.665 1312.59 283.989 1333.77 281.308C1372.34 276.432 1412.74 277.827 1457.29 285.573C1494.1 291.881 1537.32 301.312 1578.65 323.464C1618.61 344.96 1654.82 374.931 1689.84 403.915C1696.19 409.172 1702.76 414.61 1709.16 419.838C1794.42 489.426 1880.86 568.276 1966.09 654.198L1965.89 654.404Z" fill="#A1A1A1"/>
<path d="M1962.89 651.749C1878.42 564.883 1793.39 485.06 1710.16 414.506C1703.08 408.505 1695.81 402.205 1688.77 396.114C1655.27 367.098 1620.63 337.096 1581.79 316.455C1540.45 294.587 1497.17 287.611 1460.29 283.67C1369.91 273.757 1290.04 289.615 1216.12 332.149C1157.26 366.171 1106.8 411.684 1058.01 455.701C1048.15 464.591 1037.96 473.786 1028.05 482.549C1021.99 487.913 1016.62 492.623 1011.63 496.947C988.419 517.033 957.541 542.787 924.545 563.834C891.392 584.98 860.034 599.003 828.683 606.701C794.488 615.098 760.361 615.16 729.994 606.884C713.11 602.281 697.441 595.105 683.422 585.552C668.286 575.239 654.918 562.036 643.686 546.316C642.668 544.884 641.647 543.404 640.654 541.922C623.434 516.21 611.86 487.002 600.67 458.759C597.962 451.927 595.165 444.863 592.342 437.999C577.502 401.793 561.388 370.683 543.077 342.897C540.758 339.379 538.358 335.85 535.941 332.406C491.891 269.605 432.199 217.375 363.32 181.366C282.229 139.128 197.226 121.497 123.97 131.715C74.3236 138.79 24.7537 168.499 0.624367 205.638C-16.1669 231.482 -20.7045 260.371 -12.4978 289.181L-12.7686 289.257C-17.058 274.202 -17.9323 259.168 -15.3688 244.572C-12.9998 231.082 -7.69792 217.93 0.387484 205.483C12.7736 186.417 31.5615 169.251 54.7207 155.84C76.2018 143.401 100.782 134.731 123.93 131.433C162.4 126.066 203.87 128.282 247.191 138.015C286.304 146.803 325.419 161.303 363.449 181.112C432.368 217.144 492.094 269.402 536.173 332.242C538.59 335.687 540.99 339.218 543.311 342.739C561.63 370.543 577.753 401.667 592.601 437.89C595.424 444.753 598.222 451.82 600.929 458.652C612.114 486.881 623.682 516.074 640.885 541.761C641.878 543.244 642.896 544.718 643.914 546.15C684.113 602.422 753.159 624.955 828.615 606.428C897.404 589.535 957.141 543.723 1011.45 496.735C1016.43 492.411 1021.81 487.704 1027.86 482.34C1037.77 473.577 1047.96 464.385 1057.82 455.495C1106.62 411.47 1157.08 365.945 1215.97 331.91C1235.89 320.446 1256.5 310.798 1277.2 303.227C1297.01 295.988 1317.57 290.416 1338.3 286.664C1376.86 279.688 1416.77 278.619 1460.31 283.394C1497.22 287.338 1540.54 294.317 1581.92 316.209C1620.79 336.865 1655.44 366.878 1688.96 395.905C1695.99 401.996 1703.26 408.293 1710.34 414.294C1793.58 484.855 1878.62 564.683 1963.1 651.555L1962.89 651.749Z" fill="#A1A1A1"/>
<path d="M1959.91 649.094C1876.18 561.269 1792.55 480.474 1711.33 408.95C1703.87 402.376 1696.19 395.417 1688.77 388.686C1656.49 359.425 1623.11 329.167 1585.05 309.19C1543.55 287.509 1500.23 283.019 1463.33 281.486C1376.37 277.607 1297.61 297.2 1222.56 341.386C1169.93 372.521 1123.01 411.926 1077.63 450.032C1062.03 463.136 1047.29 475.513 1032.3 487.597C1026.21 492.515 1020.65 496.935 1015.32 501.104C980.932 527.98 952.318 547.412 925.273 562.255C891.344 580.879 859.436 592.52 827.727 597.841C815.425 599.905 803.169 600.934 791.135 600.934C769.803 600.934 749.162 597.709 730.16 591.322C695.771 579.762 667.406 558.433 645.852 527.927C644.836 526.481 643.824 525.001 642.842 523.524C625.885 498.034 613.987 469.346 602.48 441.599C599.564 434.569 596.552 427.302 593.515 420.236C578.041 384.114 561.548 353.264 543.105 325.919C540.753 322.433 538.319 318.935 535.868 315.521C491.222 253.293 431.068 201.779 361.912 166.551C280.266 125.124 195.029 108.46 121.9 119.628C72.0476 127.399 23.9074 156.544 -0.737963 193.881C-17.8704 219.832 -23.0088 248.893 -15.603 277.923L-15.8766 277.993C-19.743 262.834 -20.2563 247.709 -17.3995 233.038C-14.7541 219.457 -9.22945 206.232 -0.972025 193.726C11.5438 174.764 30.25 157.655 53.1271 144.243C74.377 131.785 98.7855 122.945 121.857 119.349C160.282 113.48 201.798 115.194 245.248 124.442C284.456 132.788 323.75 146.871 362.042 166.297C431.237 201.547 491.425 253.09 536.099 315.355C538.55 318.771 540.984 322.269 543.339 325.759C561.794 353.117 578.295 383.984 593.774 420.12C596.812 427.187 599.826 434.456 602.74 441.486C614.24 469.219 626.133 497.896 643.076 523.363C644.058 524.837 645.068 526.317 646.083 527.76C686.332 584.732 752.521 610.173 827.679 597.56C899.223 585.552 962.592 541.95 1015.15 500.878C1020.48 496.71 1026.03 492.293 1032.13 487.374C1047.11 475.29 1061.85 462.916 1077.45 449.812C1122.83 411.698 1169.76 372.287 1222.42 341.14C1242.19 329.499 1262.48 319.436 1282.74 311.228C1302.35 303.28 1322.57 296.811 1342.83 292.005C1381.47 282.841 1420.89 279.307 1463.34 281.201C1500.27 282.734 1543.63 287.23 1585.18 308.937C1623.27 328.927 1656.66 359.2 1688.96 388.472C1696.38 395.203 1704.06 402.162 1711.52 408.733C1792.74 480.263 1876.38 561.066 1960.11 648.896L1959.91 649.094Z" fill="#A1A1A1"/>
<path d="M1956.92 646.439C1872.78 556.399 1792.83 476.897 1712.51 403.392C1704.85 396.379 1697.3 389.216 1689.31 381.634C1658.08 351.993 1625.79 321.345 1588.32 301.927C1546.29 280.254 1501.08 278.45 1466.38 279.301C1383.38 281.072 1305.73 304.402 1229 350.626C1182.97 378.494 1140.47 411.96 1099.37 444.327C1077.76 461.338 1057.36 477.402 1036.55 492.648C1030.38 497.178 1024.64 501.304 1019.01 505.265C984.153 529.776 954.598 547.382 925.996 560.675C891.279 576.809 858.822 586.068 826.768 588.983C810.299 590.479 793.942 590.197 778.152 588.145C761.434 585.972 745.342 581.803 730.324 575.757C697.038 562.354 669.347 540.078 648.018 509.543C647.011 508.095 646.007 506.612 645.032 505.135C628.359 479.908 616.162 451.766 604.365 424.551C601.218 417.291 597.963 409.782 594.689 402.481C578.566 366.439 561.701 335.844 543.131 308.951C540.742 305.496 538.274 302.029 535.795 298.646C490.554 236.99 429.941 186.192 360.508 151.744C296.423 120.082 230.335 103.562 169.733 103.562C152.601 103.562 135.919 104.881 119.83 107.55C70.579 115.882 22.7406 145.132 -2.04858 182.068C-19.5449 208.141 -25.3065 237.399 -18.7101 266.677L-18.9865 266.739C-22.4299 251.461 -22.5737 236.232 -19.4151 221.476C-16.4878 207.797 -10.7234 194.484 -2.2855 181.91C10.3601 163.067 28.9788 146.028 51.5627 132.631C72.8803 119.983 96.4709 111.214 119.78 107.274C158.159 100.904 199.72 102.119 243.303 110.879C282.604 118.777 322.081 132.439 360.633 151.488C430.104 185.955 490.755 236.782 536.024 298.474C538.506 301.857 540.976 305.326 543.365 308.785C561.944 335.692 578.817 366.3 594.948 402.36C598.223 409.66 601.48 417.169 604.627 424.433C616.418 451.636 628.61 479.767 645.268 504.974C646.244 506.449 647.248 507.931 648.252 509.377C688.138 566.475 753.193 595.384 826.746 588.698C901.173 581.93 968.507 540.428 1018.86 505.028C1024.48 501.068 1030.21 496.941 1036.39 492.414C1057.2 477.174 1077.6 461.107 1099.2 444.099C1140.31 411.729 1182.81 378.254 1228.86 350.378C1268.37 326.579 1307.13 309.236 1347.37 297.352C1386.18 285.892 1425.11 279.893 1466.38 279.014C1489.92 278.436 1509.13 279.44 1526.83 282.168C1549.68 285.691 1569.84 292.07 1588.45 301.671C1625.96 321.105 1658.27 351.77 1689.51 381.426C1697.5 389.008 1705.05 396.167 1712.7 403.18C1793.03 476.689 1872.98 556.196 1957.13 646.242L1956.92 646.439Z" fill="#A1A1A1"/>
<path d="M1953.92 643.783C1870.55 552.756 1791.97 472.308 1713.68 397.833C1705.94 390.464 1698.3 382.874 1690.22 374.838C1659.92 344.728 1628.6 313.59 1591.58 294.66C1549.21 273.088 1504.04 273.951 1469.43 277.111C1391.1 284.014 1314.56 311.082 1235.45 359.856C1196.47 384.004 1159.36 411.638 1123.46 438.365C1095.09 459.491 1068.29 479.448 1040.8 497.687C1034.59 501.814 1028.5 505.76 1022.7 509.413C987.774 531.41 956.377 547.654 926.717 559.076C891.203 572.752 858.196 579.635 825.809 580.114C809.331 580.357 793.039 578.869 777.396 575.686C760.996 572.349 745.215 567.132 730.488 560.175C698.344 544.991 671.324 521.768 650.181 491.148C649.188 489.702 648.19 488.217 647.217 486.731C630.857 461.811 618.395 434.264 606.342 407.625C602.932 400.087 599.404 392.291 595.859 384.711C579.076 348.737 561.837 318.402 543.156 291.968C540.733 288.543 538.232 285.107 535.719 281.756C489.883 220.672 428.807 170.59 359.098 136.923C276.343 97.1232 190.63 82.3983 117.755 95.4602C69.1407 104.325 21.621 133.651 -3.30642 170.167C-21.1975 196.378 -27.5993 225.856 -21.8236 255.418L-22.1 255.472C-25.1119 240.062 -24.8806 224.714 -21.409 209.857C-18.1856 196.065 -12.1758 182.656 -3.54048 170.006C9.2292 151.298 27.7548 134.344 50.0341 120.975C71.1063 108.33 94.5052 99.412 117.704 95.1811C156.041 88.312 197.644 89.0223 241.357 97.298C280.754 104.756 320.408 118.001 359.22 136.667C428.971 170.35 490.081 220.464 535.942 281.584C538.458 284.935 540.962 288.374 543.384 291.802C562.076 318.25 579.322 348.598 596.113 384.587C599.661 392.167 603.186 399.963 606.598 407.503C618.646 434.132 631.103 461.667 647.451 486.571C648.424 488.053 649.422 489.539 650.412 490.982C690.718 549.351 753.007 580.909 825.804 579.827C884.872 578.953 947.389 556.5 1022.55 509.168C1028.34 505.515 1034.43 501.572 1040.64 497.445C1068.13 479.208 1094.92 459.257 1123.29 438.131C1159.19 411.402 1196.31 383.762 1235.3 359.608C1275.19 335.015 1313.33 316.4 1351.9 302.693C1390.97 288.808 1429.41 280.344 1469.4 276.82C1504.05 273.655 1549.28 272.795 1591.71 294.401C1628.77 313.354 1660.11 344.506 1690.42 374.629C1698.5 382.665 1706.14 390.253 1713.88 397.618C1792.17 472.097 1870.76 552.551 1954.13 643.583L1953.92 643.783Z" fill="#A1A1A1"/>
<path d="M1950.93 641.128C1868.34 549.112 1791.12 467.711 1714.86 392.277C1707.12 384.619 1699.48 376.661 1691.38 368.236C1661.95 337.589 1631.51 305.898 1594.86 287.396C1552.08 265.904 1506.99 269.441 1472.48 274.924C1398.78 286.41 1325.51 316.333 1241.9 369.093C1210.54 388.971 1179.89 410.776 1150.25 431.863C1114.26 457.473 1080.26 481.666 1045.05 502.736C1038.71 506.535 1032.43 510.183 1026.39 513.571C990.839 533.51 958.472 547.874 927.442 557.48C910.061 562.861 892.904 566.76 876.445 569.068C858.89 571.529 841.531 572.264 824.853 571.255C791.014 569.206 759.321 560.237 730.657 544.599C699.7 527.709 673.354 503.542 652.352 472.762C651.365 471.305 650.375 469.816 649.408 468.339C633.398 443.786 620.713 416.893 608.448 390.887C604.734 383.015 600.896 374.874 597.035 366.954C579.575 331.038 561.961 300.96 543.184 274.997C540.727 271.6 538.189 268.195 535.646 264.878C489.214 204.363 427.679 154.997 357.693 122.117C274.386 83.1313 188.439 69.3761 115.684 83.3822C37.7829 98.6115 -38.1273 164.414 -24.929 244.169L-25.2082 244.214C-28.5106 224.263 -26.576 204.608 -19.4607 185.791C-12.963 168.605 -2.30001 152.432 12.2323 137.724C25.7437 124.047 41.9539 112.24 60.4091 102.628C77.9617 93.4872 97.057 86.7336 115.628 83.1031C153.92 75.7322 195.568 75.9436 239.413 83.7345C278.907 90.7502 318.741 103.578 357.812 121.863C427.836 154.766 489.409 204.16 535.868 264.709C538.415 268.029 540.953 271.434 543.412 274.833C562.197 300.808 579.821 330.903 597.289 366.833C601.149 374.753 604.988 382.893 608.702 390.769C620.964 416.766 633.643 443.648 649.645 468.187C650.609 469.664 651.596 471.152 652.583 472.607C692.948 531.76 754.135 566.692 824.87 570.976C884.753 574.598 950.627 555.744 1026.25 513.328C1032.29 509.94 1038.56 506.296 1044.91 502.496C1080.1 481.432 1114.1 457.242 1150.09 431.634C1179.73 410.545 1210.38 388.737 1241.74 368.856C1325.39 316.074 1398.7 286.139 1472.44 274.644C1495.62 270.96 1514.82 269.782 1532.85 270.941C1555.91 272.421 1576.23 277.72 1594.98 287.143C1631.67 305.664 1662.13 337.374 1691.58 368.039C1699.68 376.461 1707.32 384.418 1715.06 392.074C1791.32 467.513 1868.55 548.917 1951.14 640.939L1950.93 641.128Z" fill="#A1A1A1"/>
<path d="M1947.95 638.473C1866.14 545.453 1790.28 463.105 1716.04 386.719C1708.36 378.815 1700.76 370.537 1692.73 361.768C1664.09 330.534 1634.47 298.234 1598.12 280.13C1554.42 258.457 1507.23 265.529 1475.53 272.734C1389.5 292.047 1312.41 336.949 1248.34 378.33C1225.32 393.264 1202.35 409.082 1180.13 424.379C1135.57 455.066 1093.49 484.051 1049.3 507.784C1042.81 511.277 1036.34 514.623 1030.09 517.732C993.84 535.712 960.503 548.193 928.173 555.883C891.522 564.601 856.442 566.794 823.9 562.397C790.47 557.878 759.155 546.648 730.829 529.018C701.119 510.527 675.447 485.415 654.521 454.379C653.546 452.921 652.561 451.43 651.6 449.948C635.987 425.845 623.144 399.69 610.722 374.395C606.652 366.106 602.442 357.537 598.211 349.196C579.81 312.83 562.333 283.862 543.215 258.026C540.725 254.66 538.156 251.289 535.576 248C488.544 188.06 426.545 139.41 356.284 107.307C272.424 69.1396 186.239 56.3512 113.609 71.3015C35.4286 87.6077 -38.9306 152.517 -28.0392 232.92L-28.3184 232.956C-31.0201 213.008 -28.6822 193.373 -21.3723 174.598C-14.6716 157.396 -3.94655 141.205 10.5096 126.48C23.99 112.748 40.1156 100.853 58.4411 91.1198C75.8894 81.8519 94.948 74.9038 113.553 71.0225C151.802 63.1499 193.493 62.8624 237.468 70.1656C277.057 76.7388 317.072 89.1495 356.402 107.051C426.706 139.17 488.738 187.849 535.793 247.825C538.373 251.117 540.945 254.491 543.438 257.857C562.567 283.704 580.049 312.689 598.46 349.07C602.69 357.41 606.9 365.982 610.97 374.271C623.39 399.558 636.23 425.704 651.831 449.795C652.793 451.278 653.774 452.766 654.75 454.224C695.428 514.555 755.511 552.872 823.934 562.118C885.301 570.41 952.691 555.806 1029.96 517.478C1036.21 514.372 1042.68 511.029 1049.17 507.536C1093.34 483.809 1135.42 454.83 1179.97 424.145C1202.19 408.848 1225.16 393.027 1248.19 378.091C1291.27 350.267 1327.11 329.711 1360.97 313.399C1400.83 294.198 1438.28 280.806 1475.46 272.457C1498.13 267.305 1517.89 264.971 1535.87 265.326C1559.02 265.783 1579.42 270.541 1598.25 279.876C1634.65 298.003 1664.28 330.322 1692.93 361.576C1700.97 370.342 1708.56 378.621 1716.24 386.519C1790.49 462.908 1866.34 545.262 1948.16 638.284L1947.95 638.473Z" fill="#A1A1A1"/>
<path d="M1944.96 635.814C1863.94 541.789 1789.44 458.491 1717.21 381.157C1709.64 373.048 1702.14 364.482 1694.21 355.411C1666.32 323.549 1637.49 290.601 1601.39 272.863C1557.21 251.241 1510.14 261.182 1478.58 270.543C1400.64 293.462 1331.11 337.101 1254.79 387.564C1241.02 396.699 1227.1 406.128 1213.64 415.249C1161.85 450.325 1108.3 486.593 1053.55 512.829C1046.9 516.02 1040.25 519.067 1033.78 521.886C997.284 537.761 961.998 548.658 928.898 554.275C891.401 560.64 855.754 560.389 822.939 553.534C789.977 546.648 759.042 533.155 730.993 513.43C702.608 493.468 677.604 467.415 656.679 435.995C655.712 434.535 654.736 433.041 653.78 431.558C638.638 408.019 625.714 382.716 613.215 358.247C608.711 349.43 604.055 340.314 599.376 331.444C580.255 295.114 562.415 266.394 543.232 241.06C540.714 237.734 538.108 234.391 535.491 231.126C487.872 171.751 425.417 123.816 354.874 92.4976C270.464 55.1471 184.045 43.3283 111.533 59.2201C35.8347 75.9913 -39.8979 138.623 -31.1526 221.667L-31.4318 221.695C-33.5328 201.747 -30.7916 182.135 -23.2872 163.402C-16.3862 146.18 -5.59633 129.975 8.78085 115.233C35.3073 88.0384 72.7365 67.5212 111.471 58.9411C149.676 50.5696 191.412 49.7803 235.519 56.5959C275.204 62.7294 315.397 74.7201 354.987 92.2383C425.57 123.574 488.061 171.539 535.711 230.943C538.331 234.21 540.937 237.553 543.458 240.882C562.649 266.23 580.498 294.961 599.624 331.306C604.303 340.179 608.962 349.294 613.466 358.111C625.962 382.575 638.884 407.873 654.017 431.4C654.97 432.883 655.946 434.374 656.913 435.834C698.778 498.696 756.208 539.3 822.992 553.255C884.833 566.176 955.709 555.535 1033.66 521.626C1040.13 518.808 1046.78 515.764 1053.42 512.576C1108.15 486.348 1161.69 450.085 1213.47 415.015C1226.94 405.894 1240.86 396.465 1254.63 387.33C1288.04 365.24 1326.91 339.903 1365.5 318.748C1405.85 296.622 1442.82 280.766 1478.49 270.275C1500.95 263.615 1520.71 260.159 1538.88 259.714C1561.8 259.15 1582.87 263.491 1601.51 272.612C1617.68 280.558 1633.96 292.416 1651.27 308.866C1666.56 323.391 1680.72 339.576 1694.41 355.225C1702.35 364.293 1709.84 372.859 1717.41 380.965C1789.65 458.302 1864.14 541.603 1945.17 635.631L1944.96 635.814Z" fill="#A1A1A1"/>
<path d="M1941.96 633.159C1861.74 538.119 1788.61 453.871 1718.39 375.602C1710.95 367.315 1703.59 358.489 1695.79 349.148C1668.63 316.623 1640.55 282.991 1604.66 265.602C1571.11 249.403 1530.87 250.305 1481.63 268.359C1412.78 293.459 1351.24 335.444 1286.08 379.897C1277.97 385.433 1269.58 391.155 1261.23 396.807C1257.97 399.025 1254.69 401.249 1251.43 403.47C1189.34 445.663 1125.15 489.293 1057.8 517.881C1051 520.773 1044.16 523.521 1037.47 526.046C1000.17 540.12 963.894 549.078 929.634 552.669C891.272 556.688 855.052 553.999 821.989 544.675C789.54 535.523 758.986 519.766 731.177 497.843C704.222 476.592 679.889 449.601 658.854 417.611C657.895 416.148 656.928 414.652 655.977 413.166C641.411 390.366 628.529 366.083 616.066 342.6C611.021 333.09 605.801 323.256 600.558 313.683C580.699 277.379 562.497 248.907 543.269 224.086C540.714 220.788 538.078 217.479 535.427 214.246C487.205 155.445 424.287 108.223 353.467 77.6884C268.51 41.1582 181.852 30.3062 109.461 47.1395C35.1526 64.5618 -40.4728 127.706 -34.26 210.418L-34.542 210.44C-36.0395 190.49 -32.8979 170.9 -25.1988 152.215C-18.0948 134.973 -7.24286 118.748 7.05817 103.995C33.4718 76.7442 70.7713 55.9225 109.396 46.866C147.559 37.9928 189.336 36.7019 233.573 43.0326C273.355 48.7208 313.731 60.2943 353.58 77.4291C424.439 107.984 487.396 155.231 535.638 214.062C538.289 217.295 540.932 220.61 543.487 223.908C562.723 248.744 580.935 277.224 600.801 313.542C606.046 323.115 611.264 332.952 616.312 342.462C628.768 365.939 641.651 390.216 656.211 413.008C657.162 414.494 658.126 415.988 659.085 417.451C701.858 482.495 758.214 526.39 822.062 544.396C885.09 562.171 957.529 555.905 1037.37 525.776C1044.05 523.25 1050.89 520.505 1057.69 517.616C1125.01 489.04 1189.2 445.418 1251.27 403.23C1254.54 401.006 1257.81 398.785 1261.07 396.567C1269.42 390.916 1277.81 385.194 1285.92 379.66C1351.09 335.198 1412.65 293.203 1481.53 268.091C1503.77 259.934 1523.52 255.359 1541.9 254.099C1564.91 252.523 1586.06 256.309 1604.78 265.346C1620.86 273.134 1636.93 285.046 1653.92 301.763C1668.91 316.513 1682.68 333.011 1696 348.965C1703.8 358.303 1711.17 367.126 1718.6 375.41C1788.82 453.682 1861.96 537.933 1942.18 632.976L1941.96 633.159Z" fill="#A1A1A1"/>
<path d="M1938.98 630.504C1865.76 541.941 1791.94 454.308 1719.56 370.043C1712.2 361.514 1704.89 352.35 1697.16 342.651C1672.02 311.099 1643.52 275.338 1607.92 258.338C1573.98 242.168 1533.67 244.73 1484.67 266.169C1426.41 291.576 1374.86 328.935 1320.27 368.487C1303.18 380.873 1285.51 393.684 1267.68 406.041C1236.56 427.657 1202.89 450.531 1167.6 471.364C1129.81 493.677 1095.28 510.541 1062.05 522.926C1055.06 525.528 1048.04 527.977 1041.15 530.201C1003.07 542.499 965.8 549.498 930.382 551.003C891.173 552.666 854.381 547.559 821.025 535.81C759.427 513.847 705.59 467.894 661.012 399.225C660.061 397.759 659.102 396.26 658.158 394.774C644.33 372.98 631.673 349.988 619.434 327.751C613.672 317.286 607.716 306.462 601.723 295.928C581.108 259.632 562.54 231.411 543.29 207.117C540.698 203.847 538.027 200.569 535.345 197.37C486.537 139.136 423.156 92.6332 352.06 62.8791C266.553 27.1663 179.661 17.2867 107.389 35.0586C32.629 53.5464 -41.1012 115.854 -37.3702 199.168L-37.6522 199.18C-38.5462 179.223 -34.9984 159.656 -27.1104 141.019C-19.8006 123.754 -8.88656 107.513 5.33268 92.7488C18.7284 78.8385 34.606 66.6759 52.5224 56.5962C69.9172 46.8125 88.3526 39.4727 107.318 34.7824C145.438 25.4102 187.261 23.6175 231.628 29.4607C271.505 34.7119 312.059 45.8655 352.167 62.6169C423.306 92.388 486.723 138.919 535.56 197.181C538.241 200.383 540.918 203.664 543.51 206.934C562.768 231.242 581.345 259.474 601.969 295.782C607.961 306.318 613.918 317.142 619.679 327.611C631.919 349.844 644.573 372.834 658.394 394.619C659.336 396.108 660.298 397.604 661.246 399.07C705.79 467.685 759.579 513.602 821.118 535.543C884.506 557.867 960.563 555.927 1041.06 529.931C1047.94 527.707 1054.97 525.26 1061.95 522.661C1136.26 494.973 1204.24 449.753 1267.51 405.807C1285.34 393.45 1303.02 380.641 1320.11 368.256C1374.7 328.696 1426.27 291.328 1484.56 265.909C1533.63 244.437 1574.02 241.874 1608.04 258.082C1623.99 265.695 1639.82 277.63 1656.44 294.561C1671.1 309.492 1684.46 326.26 1697.38 342.474C1705.11 352.173 1712.41 361.333 1719.78 369.857C1792.15 454.125 1865.97 541.758 1939.19 630.324L1938.98 630.504Z" fill="#A1A1A1"/>
<path d="M1935.99 627.849C1863.89 538.795 1791.47 450.187 1720.74 364.485C1713.6 355.862 1706.52 346.538 1699.02 336.667C1674.5 304.379 1646.7 267.781 1611.19 251.069C1576.84 234.926 1536.46 239.149 1487.72 263.973C1436.65 289.944 1389.74 326.615 1344.37 362.083C1321.62 379.866 1298.09 398.255 1274.12 415.272C1236.28 442.156 1204.45 462.665 1173.93 479.817C1136.3 500.966 1101.09 516.716 1066.3 527.969C1059.15 530.28 1051.93 532.428 1044.84 534.353C1007.89 544.379 971.595 549.453 936.879 549.456C934.95 549.456 933.032 549.439 931.115 549.408C890.978 548.754 853.617 541.194 820.068 526.943C803.875 520.026 788.017 511.245 772.938 500.844C758.763 491.069 744.835 479.555 731.538 466.623C707.614 443.357 685.25 415.294 663.174 380.836C662.227 379.353 661.282 377.868 660.343 376.377C647.533 356.045 635.415 334.792 623.697 314.239C616.932 302.375 609.938 290.105 602.893 278.162C581.203 241.367 562.83 214.217 543.312 190.137C540.686 186.899 537.982 183.651 535.266 180.483C485.865 122.827 422.025 77.04 350.652 48.0667C264.598 13.1741 177.469 4.26424 105.315 22.9747C31.9574 42.0516 -41.677 104.832 -40.4784 187.913L-40.7604 187.916C-41.3188 149.218 -25.9743 112.42 3.61195 81.502C16.9852 67.5269 32.7781 55.2769 50.5564 45.0845C67.8552 35.1684 86.2539 27.6368 105.245 22.6985C143.32 12.8246 185.188 10.533 229.684 15.8885C269.657 20.7 310.392 31.4364 350.757 47.8017C422.174 76.7948 486.051 122.61 535.483 180.3C538.199 183.471 540.909 186.721 543.534 189.96C563.061 214.054 581.443 241.212 603.139 278.021C610.183 289.967 617.18 302.237 623.943 314.1C635.661 334.652 647.776 355.902 660.582 376.227C661.521 377.718 662.463 379.204 663.411 380.684C710.322 453.908 761.6 501.665 820.178 526.683C901.311 561.15 987.092 549.732 1044.77 534.082C1051.85 532.157 1059.07 530.012 1066.21 527.701C1146.24 501.82 1219.27 453.899 1273.96 415.043C1297.92 398.033 1321.45 379.643 1344.19 361.863C1389.58 326.39 1436.5 289.707 1487.59 263.725C1509.4 252.616 1529.14 245.795 1547.93 242.875C1571.11 239.273 1592.43 241.945 1611.31 250.818C1627.21 258.302 1642.89 270.332 1659.24 287.593C1673.65 302.803 1686.66 319.932 1699.25 336.501C1706.74 346.369 1713.82 355.69 1720.96 364.307C1791.68 450.009 1864.1 538.618 1936.21 627.671L1935.99 627.849Z" fill="#A1A1A1"/>
<path d="M1933 625.194L1721.92 358.929C1715.02 350.233 1708.18 340.771 1700.93 330.756C1677.01 297.704 1649.9 260.244 1614.46 243.808C1580.18 227.916 1538.57 233.965 1490.77 261.789C1444.82 288.535 1402.91 324.104 1362.37 358.503C1335.96 380.926 1308.64 404.11 1280.57 424.514C1196.2 485.844 1122.47 522.067 1048.54 538.514C1017.86 545.335 987.606 548.768 958.262 548.768C949.368 548.768 940.563 548.452 931.852 547.821C890.767 544.844 852.836 534.838 819.116 518.084C787.863 502.553 759.272 480.629 731.719 451.055C709.716 427.44 688.624 399.287 665.344 362.455C653.056 343.018 641.158 322.822 629.652 303.291C603.61 259.094 576.683 213.392 543.346 173.169C492.211 111.476 425.091 63.0962 349.243 33.2575C262.644 -0.811993 175.279 -8.75506 103.243 10.894C33.5006 29.9174 -42.1953 89.9048 -43.5885 176.664L-43.8705 176.658C-43.2472 137.879 -27.4233 101.087 1.88945 70.2585C28.3933 42.3844 64.3616 21.2048 103.17 10.6206C141.203 0.247837 183.116 -2.54549 227.739 2.32239C267.808 6.69136 308.723 17.0134 349.347 32.9954C386.878 47.7597 422.522 67.1946 455.292 90.7617C488.336 114.526 518.035 142.189 543.561 172.983C576.912 213.22 603.847 258.933 629.894 303.142C641.4 322.669 653.299 342.863 665.583 362.297C699.549 416.039 747.712 482.281 819.242 517.824C901.275 558.585 989.177 551.42 1048.47 538.232C1122.37 521.796 1196.07 485.587 1280.4 424.28C1308.46 403.884 1335.77 380.701 1362.19 358.284C1402.73 323.879 1444.65 288.301 1490.63 261.54C1538.51 233.669 1580.21 227.615 1614.58 243.549C1630.44 250.908 1645.98 263.043 1662.07 280.651C1676.24 296.151 1688.91 313.658 1701.16 330.587C1708.41 340.602 1715.25 350.059 1722.14 358.752L1933.22 625.016L1933 625.194Z" fill="#A1A1A1"/>
<path d="M1931.29 604.725C1877.55 530.588 1831.43 470.428 1786.16 415.405C1764.19 388.675 1741.75 362.365 1719.47 337.206C1712.73 329.595 1706.05 321.5 1698.98 312.928C1681.21 291.385 1662.84 269.109 1641.7 252.577C1630.34 243.684 1619.42 237.317 1608.29 233.112C1574.13 220.075 1534.05 228.695 1489.16 258.733C1465.93 274.256 1444.78 291.921 1427.16 307.153C1408.5 323.279 1390.09 341.062 1372.29 358.259C1346.7 382.979 1320.24 408.538 1291.8 430.49C1274.49 443.888 1256.94 455.859 1239.65 466.074C1205.04 486.509 1167.9 503.348 1129.26 516.122C1105.38 523.927 1081.38 529.827 1057.94 533.655C1037.74 536.941 1017.51 538.838 997.791 539.292C968.284 539.974 939.535 537.372 912.343 531.552C883.431 525.362 856.069 515.482 831.021 502.184C808.685 490.326 787.587 475.395 766.524 456.535C727.273 421.42 695.966 380.817 673.078 349.366C661.834 333.843 650.855 318.013 640.237 302.705C609.663 258.618 580.785 216.977 544.647 179.886C515.174 149.833 481.546 123.899 444.69 102.798C416.367 86.5819 385.562 73.3199 353.133 63.3784C345.409 61.0135 337.538 58.8093 329.746 56.8334C296.197 48.3407 258.429 42.8104 217.495 40.3948C176.225 37.9031 140.518 40.0594 108.343 46.9933C90.1533 50.8831 72.5301 56.9856 55.956 65.1288C-2.5567 93.8795 -40.1297 142.144 -44.5517 194.239L-44.9042 194.208C-43.7254 180.32 -40.265 166.641 -34.6219 153.546C-29.2608 141.107 -21.8974 129.11 -12.7375 117.889C4.56985 96.6925 28.2705 78.3372 55.8009 64.8103C72.4003 56.653 90.0517 50.5421 108.27 46.6466C140.479 39.707 176.213 37.5479 217.517 40.0424C258.475 42.4581 296.262 47.994 329.833 56.4923C337.634 58.4711 345.508 60.6753 353.238 63.043C385.692 72.9901 416.522 86.2634 444.867 102.493C481.749 123.608 515.405 149.566 544.893 179.638C581.053 216.752 609.937 258.404 640.522 302.502C651.137 317.81 662.116 333.637 673.357 349.157C696.234 380.594 727.526 421.177 766.755 456.27C787.796 475.11 808.871 490.027 831.181 501.871C880.204 527.896 936.255 540.369 997.78 538.94C1017.48 538.486 1037.7 536.589 1057.89 533.305C1081.31 529.477 1105.28 523.583 1129.14 515.784C1167.77 503.018 1204.89 486.191 1239.47 465.766C1256.75 455.56 1274.29 443.594 1291.58 430.208C1320.01 408.268 1346.46 382.714 1372.04 358.002C1389.84 340.802 1408.25 323.014 1426.92 306.882C1444.56 291.642 1465.72 273.971 1488.97 258.437C1508.95 245.063 1528.3 235.823 1546.48 230.972C1568.81 225.013 1589.65 225.622 1608.41 232.782C1619.57 237.001 1630.53 243.386 1641.91 252.298C1663.09 268.855 1681.47 291.146 1699.25 312.703C1706.32 321.272 1713 329.367 1719.73 336.972C1742.02 362.134 1764.47 388.447 1786.44 415.182C1831.71 470.211 1877.83 530.376 1931.58 604.519L1931.29 604.725Z" fill="#A1A1A1"/>
<path d="M1929.59 584.25C1879.76 508.858 1832.99 445.77 1786.6 391.384C1763.98 364.818 1740.57 339.28 1717.02 315.482C1710.77 309.168 1704.61 302.606 1698.07 295.661C1678.51 274.862 1658.29 253.355 1635.63 238.475C1624.19 230.93 1613.23 225.676 1602.12 222.412C1559.56 209.908 1516.34 233.596 1487.56 255.669C1467.18 271.262 1448.56 288.893 1429.7 307.094C1413.19 323.025 1397.66 340.162 1381.22 358.304C1356.82 385.233 1331.58 413.079 1303.03 436.46C1286.08 450.41 1268.39 462.471 1250.46 472.308C1217.06 490.635 1180.48 504.867 1138.63 515.821C1115.21 521.948 1091.23 526.315 1067.35 528.792C1047.2 530.858 1027.08 531.597 1007.56 530.979C978.521 530.072 950.133 525.99 923.184 518.851C894.881 511.35 867.875 500.391 842.919 486.278C821.055 473.915 799.943 458.576 778.377 439.386C739.211 404.584 705.659 366.001 680.808 336.275C671.609 325.271 662.556 314.199 653.799 303.488C618.928 260.836 585.991 220.546 545.951 186.603C516.026 161.235 482.429 139.784 446.1 122.85C418.612 110.036 389.477 100.436 357.034 93.4987C349.546 91.9005 341.929 90.4602 334.396 89.2171C301.31 83.7855 265.999 81.7307 223.276 79.6054C192.48 77.9959 152.166 76.9361 113.437 83.0865C95.0944 85.9446 77.364 90.9083 60.7335 97.8339C2.18134 122.224 -37.5378 164.831 -45.5188 211.813L-45.9362 211.743C-43.8211 199.284 -39.5345 187.065 -33.2032 175.421C-27.1681 164.327 -19.2378 153.689 -9.63512 143.795C8.61414 125 32.8901 108.971 60.57 97.4421C77.2315 90.5024 94.9957 85.5303 113.369 82.6665C152.135 76.5076 192.48 77.5703 223.296 79.1798C266.033 81.3051 301.355 83.3599 334.464 88.7943C342.002 90.0402 349.625 91.4805 357.121 93.0787C389.595 100.024 418.759 109.633 446.278 122.461C482.644 139.412 516.268 160.88 546.224 186.273C586.293 220.241 619.244 260.543 654.126 303.212C662.88 313.92 671.933 324.992 681.132 335.994C705.978 365.708 739.515 404.276 778.659 439.062C800.199 458.232 821.289 473.554 843.128 485.903C892.199 513.653 947.53 528.674 1007.58 530.551C1027.08 531.165 1047.17 530.43 1067.31 528.364C1091.16 525.889 1115.13 521.528 1138.52 515.403C1180.33 504.461 1216.88 490.241 1250.26 471.931C1268.17 462.105 1285.83 450.06 1302.76 436.125C1331.29 412.763 1356.52 384.929 1380.91 358.013C1397.36 339.864 1412.89 322.723 1429.41 306.783C1448.28 288.572 1466.9 270.935 1487.31 255.325C1505.96 241.015 1524.36 230.721 1541.99 224.723C1563.38 217.451 1583.65 216.535 1602.24 221.997C1613.4 225.275 1624.4 230.546 1635.87 238.115C1658.56 253.023 1678.81 274.549 1698.38 295.365C1704.91 302.307 1711.08 308.866 1717.33 315.178C1740.89 338.984 1764.3 364.53 1786.93 391.105C1833.32 445.505 1880.11 508.605 1929.95 584.013L1929.59 584.25Z" fill="#A1A1A1"/>
<path d="M1927.89 563.774C1881.25 486.105 1835.18 421.859 1787.04 367.365C1763.77 340.963 1739.39 316.2 1714.58 293.761C1709.28 288.963 1703.82 283.873 1698.54 278.951C1676.73 258.617 1654.19 237.593 1629.58 224.376C1618.02 218.13 1607.02 213.986 1595.96 211.711C1553.5 202.976 1512.7 229.128 1485.96 252.602C1467.84 268.449 1451.27 286.41 1435.25 303.781L1432.25 307.034C1417.7 322.793 1404.05 340.077 1389.6 358.379C1366.59 387.522 1342.8 417.654 1314.26 442.43C1297.65 456.952 1279.82 469.103 1261.27 478.546C1228.93 495.01 1192.93 506.758 1148 515.518C1124.76 520.048 1100.79 522.878 1076.74 523.927C1056.65 524.769 1036.66 524.347 1017.33 522.664C958.808 517.593 904.131 499.999 854.812 470.371C833.492 457.563 812.366 441.821 790.231 422.237C752.77 389.165 719.453 355.172 688.541 323.188C684.396 318.901 680.295 314.642 676.226 310.416C634.005 266.589 594.128 225.19 547.262 193.328C516.667 172.526 483.104 155.563 447.511 142.907C421.379 133.617 393.059 127.308 360.937 123.622C353.698 122.796 346.335 122.116 339.05 121.603C320.725 120.335 301.288 120.129 280.709 119.912C264.18 119.737 247.09 119.557 229.055 118.821C194.224 117.28 154.747 115.535 118.525 119.188C99.8356 121.074 81.9981 124.896 65.5058 130.55C6.97619 150.619 -34.8919 187.575 -46.4912 229.407L-46.9678 229.275C-43.9108 218.245 -38.8007 207.486 -31.7813 197.297C-25.0693 187.552 -16.575 178.268 -6.5352 169.702C12.6673 153.319 37.5242 139.621 65.3422 130.082C81.8712 124.414 99.7454 120.583 118.471 118.695C154.73 115.039 194.226 116.786 229.072 118.328C247.096 119.061 264.186 119.244 280.709 119.419C301.297 119.636 320.739 119.842 339.081 121.113C346.371 121.629 353.743 122.308 360.988 123.134C393.149 126.824 421.503 133.14 447.671 142.445C483.307 155.115 516.906 172.098 547.536 192.922C594.444 224.813 634.341 266.231 676.578 310.078C680.648 314.303 684.751 318.56 688.894 322.85C719.8 354.828 753.106 388.813 790.555 421.873C812.668 441.435 833.771 457.163 855.066 469.954C904.32 499.545 958.927 517.114 1017.37 522.179C1036.68 523.859 1056.65 524.282 1076.72 523.439C1100.74 522.391 1124.69 519.563 1147.9 515.039C1192.79 506.287 1228.74 494.553 1261.04 478.112C1279.56 468.689 1297.35 456.56 1313.93 442.063C1342.43 417.318 1366.21 387.203 1389.21 358.078C1403.66 339.767 1417.32 322.475 1431.88 306.704L1434.88 303.451C1450.91 286.071 1467.49 268.099 1485.63 252.236C1512.46 228.686 1553.39 202.458 1596.06 211.232C1607.17 213.518 1618.21 217.676 1629.81 223.947C1654.47 237.192 1677.04 258.24 1698.87 278.596C1704.15 283.518 1709.61 288.608 1714.9 293.403C1739.73 315.854 1764.12 340.63 1787.41 367.047C1835.57 421.563 1881.65 485.832 1928.31 563.526L1927.89 563.774Z" fill="#A1A1A1"/>
<path d="M1926.19 543.297C1883.37 464.455 1836.7 397.181 1787.49 343.35C1763.56 317.114 1738.21 293.124 1712.14 272.046C1708.38 269.001 1704.52 265.842 1700.79 262.786C1676.15 242.602 1650.67 221.726 1623.53 210.282C1611.88 205.319 1600.85 202.289 1589.81 201.015C1547.47 196.133 1509.1 224.706 1484.37 249.536C1469.01 264.875 1455.15 281.934 1441.75 298.431C1439.43 301.287 1437.11 304.136 1434.79 306.975C1422.04 322.568 1410.12 339.987 1397.5 358.427C1376.05 389.777 1353.86 422.192 1325.49 448.406C1308.83 463.798 1291.36 475.699 1272.08 484.792C1231.76 503.81 1191.46 510.848 1157.36 515.228C1134.3 518.188 1110.34 519.484 1086.14 519.073C1066.1 518.692 1046.24 517.105 1027.09 514.36C970.331 506.239 916.371 486.091 866.71 454.474C846.047 441.322 824.91 425.171 802.086 405.099C779.032 384.872 757.548 365.409 736.769 346.586C722.648 333.792 709.309 321.708 696.282 310.115C647.042 266.29 601.94 227.758 548.585 200.062C517.332 183.84 483.803 171.359 448.929 162.968C423.934 156.953 397.216 154.024 364.849 153.745C357.866 153.694 350.754 153.776 343.712 153.99C333.015 154.337 321.948 155.062 310.236 155.831C287.76 157.305 262.279 158.977 234.834 158.041C224.382 157.683 213.719 157.178 203.406 156.688C176.879 155.428 149.45 154.126 123.609 155.29C104.632 156.147 86.685 158.83 70.2717 163.267C11.8408 179.065 -32.1735 210.373 -47.47 247.013L-47.9918 246.796C-43.9871 237.201 -38.0535 227.905 -30.3573 219.164C-22.9656 210.77 -13.9073 202.841 -3.43887 195.6C16.7337 181.647 42.1688 170.28 70.1194 162.723C86.5722 158.275 104.559 155.583 123.578 154.726C149.448 153.559 176.888 154.864 203.428 156.124C213.739 156.615 224.402 157.119 234.851 157.477C262.271 158.413 287.731 156.744 310.197 155.27C321.915 154.501 332.984 153.776 343.692 153.429C350.742 153.215 357.86 153.134 364.852 153.184C397.264 153.46 424.021 156.398 449.059 162.421C483.975 170.824 517.549 183.319 548.842 199.563C572.943 212.072 597.365 227.922 623.505 248.013C646.907 266 669.671 285.68 696.655 309.695C709.681 321.291 723.02 333.375 737.144 346.169C757.92 364.989 779.404 384.452 802.453 404.676C825.254 424.729 846.369 440.863 867.006 454.001C916.599 485.576 970.484 505.695 1027.17 513.805C1046.29 516.547 1066.13 518.131 1086.14 518.512C1110.31 518.924 1134.25 517.63 1157.28 514.67C1191.34 510.298 1231.58 503.269 1271.83 484.285C1291.06 475.217 1308.48 463.347 1325.1 447.994C1353.42 421.825 1375.59 389.436 1397.03 358.112C1409.66 339.66 1421.59 322.232 1434.35 306.623C1436.67 303.784 1438.99 300.934 1441.3 298.082C1454.72 281.573 1468.59 264.503 1483.96 249.144C1500.05 232.99 1516.56 220.562 1533.02 212.208C1552.52 202.311 1571.65 198.359 1589.87 200.462C1600.96 201.742 1612.04 204.786 1623.74 209.769C1650.95 221.244 1676.46 242.145 1701.13 262.355C1704.86 265.41 1708.72 268.57 1712.48 271.612C1738.57 292.707 1763.94 316.719 1787.89 342.975C1814.02 371.56 1839.61 404.127 1863.95 439.772C1885.46 471.276 1906.56 506.02 1926.67 543.032L1926.19 543.297Z" fill="#A1A1A1"/>
<path d="M1924.49 522.813C1884.85 441.711 1838.91 373.251 1787.93 319.332C1763.35 293.262 1737.03 270.047 1709.71 250.328C1708.41 249.389 1707.11 248.45 1705.8 247.509C1677.39 226.978 1648.01 205.747 1617.5 196.189C1605.67 192.485 1594.61 190.566 1583.68 190.318C1541.5 189.365 1505.53 220.326 1482.79 246.463C1469.4 261.755 1457.52 278.515 1446.03 294.722C1443.19 298.73 1440.25 302.874 1437.35 306.91C1426.31 322.283 1416.04 339.762 1405.17 358.27C1385.4 391.933 1364.95 426.741 1336.73 454.376C1320.4 470.363 1302.79 482.354 1282.9 491.036C1243.7 508.137 1203.9 512.627 1166.73 514.932C1143.81 516.353 1119.86 516.111 1095.54 514.214C1075.57 512.607 1055.83 509.859 1036.86 506.048C982.03 495.055 928.786 472.353 878.612 438.571C858.518 425.044 837.971 408.961 813.952 387.956C768.302 348.145 734.403 320.104 704.041 297.039C643.653 251.165 597.563 224.176 549.934 206.796C518.046 195.16 484.551 187.164 450.374 183.026C426.662 180.156 401.497 180.413 368.783 183.866C362.08 184.582 355.221 185.425 348.397 186.374C341.95 187.285 335.401 188.328 328.466 189.43C302.862 193.503 273.84 198.12 240.624 197.257C223.117 196.804 205.234 195.561 187.941 194.36C168.287 192.996 147.965 191.583 128.698 191.392C109.379 191.2 91.322 192.745 75.0412 195.986C16.8049 207.574 -29.3612 233.238 -48.4508 264.635L-48.9923 264.306C-44.0345 256.148 -37.2773 248.315 -28.9099 241.023C-20.833 233.982 -11.2162 227.412 -0.324776 221.49C20.8321 209.984 46.8509 200.947 74.9171 195.363C91.243 192.116 109.34 190.566 128.703 190.758C147.987 190.949 168.321 192.361 187.983 193.728C205.271 194.929 223.145 196.172 240.638 196.626C273.795 197.486 302.786 192.874 328.362 188.807C335.3 187.702 341.854 186.662 348.303 185.749C355.137 184.799 362.001 183.956 368.71 183.237C401.475 179.782 426.681 179.522 450.444 182.4C484.67 186.544 518.213 194.551 550.145 206.204C597.84 223.607 643.978 250.624 704.419 296.537C734.792 319.611 768.702 347.66 814.363 387.482C838.366 408.47 858.891 424.537 878.962 438.05C929.068 471.784 982.233 494.455 1036.98 505.431C1055.92 509.236 1075.64 511.978 1095.58 513.585C1119.87 515.479 1143.79 515.722 1166.69 514.304C1203.8 512.001 1243.53 507.522 1282.64 490.461C1302.46 481.813 1320.01 469.862 1336.28 453.93C1364.44 426.355 1384.87 391.584 1404.62 357.957C1415.49 339.438 1425.77 321.945 1436.83 306.549C1439.73 302.516 1442.67 298.372 1445.51 294.364C1457.01 278.143 1468.9 261.371 1482.3 246.055C1497.15 228.996 1512.71 215.503 1528.55 205.947C1547.12 194.754 1565.67 189.289 1583.69 189.692C1594.68 189.94 1605.8 191.871 1617.68 195.592C1648.3 205.184 1677.72 226.442 1706.17 247.005C1707.48 247.946 1708.78 248.887 1710.08 249.823C1737.43 269.565 1763.78 292.808 1788.39 318.907C1839.41 372.873 1885.39 441.387 1925.05 522.546L1924.49 522.813Z" fill="#A1A1A1"/>
<path d="M1180.76 514.639C1179.18 514.639 1177.62 514.636 1176.08 514.628C1153.28 514.532 1129.34 512.756 1104.93 509.346C1085.03 506.513 1065.41 502.603 1046.62 497.73C1019.77 490.779 992.827 480.789 966.529 468.041C941.134 455.729 915.558 440.462 890.509 422.662C865.965 405.223 843.04 385.791 825.809 370.81C785.492 335.852 747.132 306.634 711.796 283.963C654.563 247.247 603.561 224.864 551.284 213.524C519.746 206.683 485.909 203.075 453.331 203.075C452.826 203.075 452.324 203.075 451.819 203.078C423.832 203.174 397.26 208.371 372.719 213.975C366.332 215.444 359.724 217.047 353.08 218.747C349.439 219.688 345.793 220.658 341.935 221.684C314.723 228.931 283.879 237.142 246.407 236.468C223.587 236.057 200.278 233.695 177.736 231.409C163.182 229.932 148.133 228.407 133.779 227.485C114.046 226.219 95.8869 226.625 79.8007 228.697C21.8746 236.15 -26.4432 256.174 -49.4529 282.263L-49.9831 281.798C-38.1807 268.418 -20.4278 256.833 2.78213 247.362C24.9486 238.32 51.5511 231.623 79.7104 228.001C95.8389 225.926 114.046 225.515 133.824 226.786C148.192 227.708 163.249 229.235 177.81 230.712C200.337 232.998 223.632 235.36 246.421 235.769C283.797 236.443 314.587 228.243 341.754 221.01C345.615 219.982 349.261 219.012 352.905 218.071C359.555 216.371 366.168 214.764 372.561 213.296C397.145 207.684 423.762 202.478 451.816 202.379C484.914 202.263 519.357 205.883 551.433 212.842C578.413 218.696 604.57 227.313 631.393 239.185C657.226 250.621 683.651 265.075 712.174 283.377C747.538 306.064 785.927 335.306 826.269 370.286C843.486 385.258 866.394 404.676 890.913 422.096C941.74 458.215 994.187 483.433 1046.79 497.056C1065.56 501.924 1085.15 505.828 1105.02 508.658C1129.41 512.063 1153.31 513.839 1176.08 513.932C1211.71 514.078 1253.09 512.878 1293.44 496.628C1313.86 488.403 1331.53 476.375 1347.45 459.861C1375.42 430.856 1393.96 393.63 1411.89 357.627C1421.12 339.108 1429.83 321.615 1439.3 306.473C1442.34 301.622 1445.4 296.625 1448.36 291.791C1458.37 275.459 1468.71 258.575 1480.63 242.968C1494.25 225.013 1508.87 210.449 1524.07 199.681C1541.7 187.197 1559.67 180.213 1577.49 178.922C1588.48 178.124 1599.64 178.939 1611.6 181.413C1643.59 188.026 1675.29 207.238 1707.65 228.032C1735.87 246.162 1763.96 269.261 1788.87 294.835C1816.55 323.16 1842.55 356.389 1866.16 393.599C1887.19 426.75 1906.46 463.24 1923.42 502.059L1922.78 502.341C1886.35 418.976 1841.13 349.326 1788.37 295.328C1763.49 269.791 1735.45 246.725 1707.27 228.627C1674.96 207.87 1643.33 188.694 1611.46 182.104C1599.56 179.643 1588.47 178.834 1577.54 179.626C1544.8 182.003 1510.59 204.648 1481.19 243.396C1469.3 258.975 1458.96 275.845 1448.96 292.16C1446 296.997 1442.94 301.997 1439.9 306.848C1430.45 321.962 1421.74 339.441 1412.53 357.942C1403.73 375.607 1394.63 393.875 1384.19 411.436C1372.35 431.344 1360.51 447.343 1347.96 460.351C1331.97 476.939 1314.22 489.02 1293.7 497.285C1275.61 504.574 1256.15 509.391 1234.24 512.018C1215.68 514.23 1197.04 514.639 1180.76 514.639Z" fill="#A1A1A1"/>
<path d="M1225.99 516.051C1211.61 516.051 1197.79 515.195 1185.43 514.326C1162.71 512.731 1138.78 509.419 1114.31 504.481C1094.49 500.425 1075 495.357 1056.37 489.412C1005.36 473.168 954.99 446.128 902.397 406.754C879.461 389.585 857.839 371.112 837.663 353.664C797.831 319.318 758.095 291.469 719.552 270.887C662.867 240.617 609.831 224.525 552.644 220.247C520.059 217.808 485.699 218.804 453.272 223.122C426.131 226.735 400.544 235.456 376.657 244.076C370.681 246.243 364.325 248.611 357.768 251.111C356.129 251.74 354.477 252.38 352.801 253.025C325.291 263.657 294.162 275.688 254.211 275.688C253.537 275.688 252.866 275.685 252.186 275.676C225.158 275.403 197.563 271.547 170.873 267.815C160.292 266.335 149.349 264.807 138.85 263.57C118.342 261.157 100.58 260.444 84.5477 261.397C26.2352 264.864 -22.985 278.89 -50.4872 299.886L-50.9582 299.269C-37.3622 288.89 -17.7028 279.879 5.8878 273.21C29.0921 266.651 56.2756 262.299 84.4998 260.622C100.577 259.666 118.384 260.379 138.937 262.798C149.448 264.035 160.393 265.566 170.977 267.043C197.642 270.769 225.212 274.622 252.189 274.895C292.972 275.313 324.608 263.082 352.517 252.295C354.189 251.65 355.844 251.01 357.483 250.378C364.045 247.875 370.405 245.508 376.386 243.34C400.313 234.704 425.948 225.971 453.162 222.347C485.639 218.023 520.057 217.025 552.694 219.466C581.034 221.586 608.054 226.592 635.297 234.766C663.355 243.185 691.032 254.773 719.91 270.197C758.501 290.807 798.288 318.689 838.162 353.069C858.329 370.511 879.937 388.974 902.854 406.125C955.377 445.446 1005.67 472.446 1056.6 488.665C1075.2 494.598 1094.67 499.661 1114.45 503.711C1138.89 508.644 1162.79 511.953 1185.48 513.543C1223.66 516.221 1264.27 517.596 1304.23 502.778C1325.25 494.979 1343.05 482.875 1358.62 465.774C1386.36 435.313 1403.63 393.763 1418.87 357.103C1426.54 338.657 1433.78 321.235 1441.77 306.383C1444.65 301.025 1447.55 295.486 1450.36 290.131C1459.13 273.373 1468.21 256.047 1478.95 239.865C1491.38 221.013 1505.05 205.378 1519.59 193.393C1536.28 179.629 1553.67 171.128 1571.27 168.132C1582.28 166.257 1593.48 165.959 1605.51 167.21C1639.14 170.714 1673.31 188.026 1705.22 206.215C1734.69 223.009 1763.78 245.322 1789.35 270.741C1817.8 298.933 1844.01 332.495 1867.26 370.489C1888.04 404.465 1906.39 441.83 1921.79 481.551L1921.07 481.83C1888.33 397.399 1842.6 324.595 1788.81 271.288C1763.29 245.917 1734.25 223.646 1704.84 206.886C1673.01 188.739 1638.93 171.469 1605.44 167.98C1593.47 166.734 1582.34 167.033 1571.41 168.893C1538.91 174.426 1506.31 199.78 1479.6 240.288C1468.88 256.436 1459.82 273.745 1451.05 290.486C1448.24 295.844 1445.34 301.383 1442.46 306.747C1434.48 321.565 1427.25 338.97 1419.59 357.396C1404.33 394.112 1387.03 435.73 1359.2 466.293C1343.53 483.487 1325.64 495.658 1304.5 503.503C1286.15 510.307 1266.36 514.248 1243.99 515.541C1237.94 515.908 1231.92 516.051 1225.99 516.051Z" fill="#A1A1A1"/>
<path d="M1254.37 519.104C1254.16 519.104 1253.96 519.104 1253.76 519.104C1233.43 519.053 1213.48 516.567 1194.78 514.025C1172.09 510.941 1148.18 506.09 1123.69 499.613C1103.97 494.339 1084.6 488.107 1066.12 481.094C1017.15 462.527 968.905 433.853 914.292 390.848C894.625 375.365 875.27 358.692 856.549 342.572C854.209 340.554 851.865 338.538 849.522 336.523C809.484 302.186 768.369 275.704 727.321 257.817C671.113 233.325 614.425 223.234 554.017 226.969C520.894 229.018 486.564 234.619 454.739 243.165C429.628 249.91 407.253 260.731 380.608 274.176C375.207 276.913 369.44 279.867 362.463 283.475L362.074 283.678C348.613 290.686 333.356 298.626 316.243 304.663C296.59 311.597 277.523 314.935 257.97 314.895C227.482 314.819 196.367 309.148 166.279 303.66C158.907 302.315 151.281 300.926 143.92 299.669C122.811 296.069 104.943 294.251 89.2938 294.113C31.6723 293.606 -19.6602 302.141 -51.5393 317.525L-51.9059 316.764C-36.2907 309.227 -15.2269 303.11 9.00669 299.074C33.2855 295.029 61.0528 293.022 89.3023 293.27C104.997 293.408 122.91 295.229 144.064 298.837C151.43 300.094 159.056 301.484 166.431 302.828C196.482 308.308 227.558 313.974 257.973 314.05C258.109 314.05 258.247 314.05 258.382 314.05C301.889 314.05 335.034 296.799 361.685 282.928L362.077 282.726C369.057 279.115 374.824 276.161 380.227 273.424C406.917 259.956 429.332 249.115 454.522 242.351C486.401 233.787 520.787 228.178 553.966 226.126C583.527 224.3 611.41 225.692 639.214 230.388C669.175 235.448 698.107 244.166 727.66 257.044C768.786 274.966 809.972 301.49 850.074 335.883C852.418 337.899 854.762 339.917 857.102 341.935C875.814 358.049 895.163 374.716 914.814 390.188C969.356 433.139 1017.53 461.774 1066.42 480.31C1084.87 487.315 1104.21 493.535 1123.91 498.804C1148.36 505.272 1172.24 510.115 1194.9 513.193C1235.47 518.712 1275.19 522.54 1315.04 508.965C1336.66 501.597 1354.58 489.417 1369.8 471.727C1397.3 439.772 1412.32 395.493 1425.57 356.423C1431.77 338.133 1437.64 320.854 1444.25 306.335C1446.79 300.748 1449.34 294.97 1451.81 289.38C1459.53 271.905 1467.5 253.837 1477.29 236.801C1488.55 217.044 1501.27 200.335 1515.11 187.138C1530.88 172.098 1547.69 162.086 1565.07 157.384C1575.85 154.469 1586.84 153.049 1598.66 153.049C1598.91 153.049 1599.17 153.049 1599.43 153.052C1636.17 153.243 1673.97 169.924 1702.8 184.435C1733.52 199.895 1763.62 221.419 1789.85 246.68C1819.07 274.743 1845.49 308.635 1868.36 347.417C1888.89 382.22 1906.32 420.461 1920.17 461.084L1919.37 461.357C1898.77 400.913 1859.47 314.712 1789.26 247.292C1763.09 222.087 1733.06 200.614 1702.42 185.19C1673.67 170.719 1635.99 154.086 1599.43 153.897C1587.39 153.827 1576.23 155.242 1565.29 158.201C1533.09 166.914 1502.1 194.977 1478.02 237.221C1468.26 254.217 1460.29 272.265 1452.58 289.722C1450.11 295.314 1447.56 301.095 1445.02 306.684C1438.42 321.167 1432.57 338.423 1426.37 356.694C1413.09 395.834 1398.05 440.197 1370.44 472.277C1355.12 490.085 1337.09 502.347 1315.31 509.763C1296.86 516.046 1276.92 519.104 1254.37 519.104Z" fill="#A1A1A1"/>
<path d="M1276.94 523.073C1272.56 523.073 1268.09 522.932 1263.51 522.65C1243.46 521.419 1223.98 517.723 1204.13 513.721C1181.11 509.081 1157.87 502.874 1133.07 494.745C1113.45 488.257 1094.2 480.866 1075.88 472.774C1029.38 452.276 983.214 422.102 926.188 374.94C912.025 363.228 897.867 350.944 884.176 339.063C876.722 332.597 869.017 325.909 861.383 319.378C820.869 284.809 778.38 259.7 735.096 244.744C677.906 224.982 619.128 221.363 555.398 233.681C521.728 240.189 487.43 250.396 456.213 263.195C431.136 273.478 409.291 287.918 386.163 303.207L384.564 304.264C380.952 306.66 377.3 309.089 373.602 311.547C371.473 312.965 369.33 314.391 367.167 315.829C353.681 324.84 339.115 334.241 322.411 341.476C303.017 349.876 283.834 354.008 263.76 354.11C230.341 354.273 196.254 346.51 163.292 338.996C158.588 337.922 153.72 336.814 148.996 335.763C126.85 330.83 109.39 327.992 94.0426 326.825C37.4082 322.52 -16.0395 325.553 -52.6001 335.148L-52.8342 334.263C-16.1777 324.643 37.38 321.599 94.1131 325.911C109.503 327.081 127.007 329.928 149.197 334.869C153.923 335.923 158.791 337.031 163.498 338.105C196.056 345.527 229.712 353.196 262.688 353.196C263.044 353.196 263.399 353.196 263.757 353.193C306.409 352.979 336.771 335.035 366.662 315.068C368.825 313.63 370.968 312.204 373.098 310.786C376.795 308.326 380.444 305.899 384.06 303.5L385.659 302.443C408.826 287.129 430.708 272.663 455.866 262.347C487.139 249.522 521.497 239.299 555.226 232.779C619.117 220.43 678.053 224.061 735.398 243.876C778.789 258.872 821.376 284.037 861.981 318.681C869.615 325.215 877.323 331.901 884.776 338.37C898.462 350.248 912.617 362.529 926.771 374.232C983.73 421.341 1029.83 451.473 1076.25 471.936C1094.55 480.015 1113.76 487.397 1133.36 493.874C1158.12 501.992 1181.33 508.19 1204.31 512.822C1239.2 519.854 1282.61 528.609 1325.85 515.124C1348.08 508.193 1366.11 495.938 1380.98 477.656C1408.21 444.169 1420.83 397.072 1431.97 355.522C1436.81 337.471 1441.39 320.421 1446.72 306.271C1448.8 300.757 1450.88 295.055 1452.9 289.539C1459.65 271.04 1466.64 251.912 1475.62 233.72C1485.74 213.045 1497.52 195.262 1510.63 180.864C1525.49 164.55 1541.71 153.03 1558.86 146.623C1569.86 142.51 1581.14 139.976 1593.34 138.874C1609.67 137.397 1627.06 138.976 1646.49 143.689C1662.93 147.68 1680.56 153.875 1700.38 162.633C1732.34 176.757 1763.45 197.495 1790.34 222.601C1820.34 250.531 1846.96 284.758 1869.47 324.327C1889.73 359.958 1906.25 399.076 1918.54 440.598L1917.66 440.858C1891.7 353.196 1846.26 275.922 1789.71 223.271C1762.9 198.233 1731.88 177.555 1700.01 163.473C1657.3 144.605 1623.44 137.076 1593.42 139.787C1581.31 140.881 1570.11 143.398 1559.18 147.48C1518.38 162.72 1491.67 203.011 1476.44 234.123C1467.49 252.27 1460.51 271.375 1453.76 289.852C1451.74 295.371 1449.66 301.076 1447.58 306.592C1442.26 320.7 1437.69 337.73 1432.86 355.758C1421.7 397.399 1409.04 444.595 1381.69 478.233C1366.7 496.659 1348.53 509.014 1326.12 516.001C1310.93 520.736 1294.74 523.073 1276.94 523.073Z" fill="#A1A1A1"/>
<path d="M1296.49 527.622C1266.67 527.622 1238 519.964 1213.47 513.413C1190.39 507.251 1167.16 499.551 1142.44 489.874C1122.93 482.179 1103.81 473.627 1085.62 464.452C1031.1 436.981 982.484 397.551 938.078 359.031C929.011 351.166 919.851 343.06 910.996 335.221C898.7 324.335 885.984 313.08 873.242 302.234C832.122 267.324 788.26 243.583 742.878 231.668C684.17 216.258 623.297 219.108 556.781 240.383C522.533 251.337 488.268 266.149 457.689 283.219C434.104 296.382 414.148 313.001 393.023 330.596C391.525 331.841 390.025 333.093 388.516 334.344L387.698 335.027C382.563 339.308 377.252 343.734 371.869 348.176C358.969 358.867 344.764 369.925 328.334 378.372C309.261 388.179 290.033 393.069 269.545 393.323C233.582 393.771 196.928 383.666 161.485 373.893C159 373.209 156.527 372.526 154.065 371.853C130.691 365.443 113.641 361.643 98.784 359.529C43.5709 351.677 -11.9975 349.207 -53.6738 352.756L-53.7584 351.772C-12.0144 348.215 43.6358 350.687 98.9222 358.551C113.821 360.671 130.908 364.479 154.324 370.9C156.786 371.574 159.26 372.256 161.747 372.944C197.123 382.696 233.706 392.776 269.531 392.336C314.024 391.784 345.359 368.859 371.237 347.415C376.621 342.972 381.931 338.547 387.066 334.268L387.884 333.586C389.393 332.332 390.893 331.083 392.391 329.837C413.553 312.212 433.543 295.565 457.207 282.357C487.842 265.256 522.172 250.418 556.479 239.445C588.014 229.359 617.634 223.536 647.029 221.642C679.819 219.531 712.149 222.583 743.126 230.715C788.652 242.667 832.643 266.476 873.88 301.481C886.63 312.333 899.349 323.591 911.647 334.48C920.503 342.319 929.657 350.422 938.721 358.284C983.082 396.762 1031.63 436.15 1086.06 463.57C1104.23 472.731 1123.32 481.272 1142.8 488.955C1167.48 498.618 1190.68 506.307 1213.72 512.46C1249.1 521.909 1293.14 533.668 1336.65 521.294C1359.48 514.8 1377.63 502.468 1392.14 483.594C1419.09 448.532 1429.17 398.537 1438.07 354.425C1441.65 336.701 1445.02 319.961 1449.18 306.214C1450.72 301.129 1452.27 295.875 1453.76 290.793C1459.61 270.915 1465.66 250.359 1473.93 230.648C1482.93 209.037 1493.77 190.174 1506.13 174.589C1520.08 157.004 1535.72 143.976 1552.63 135.866C1563.61 130.601 1574.93 126.951 1587.23 124.704C1603.8 121.68 1622.19 121.781 1641.88 125.006C1659.13 127.83 1677.99 133.155 1697.93 140.836C1731.14 153.624 1763.26 173.572 1790.81 198.523C1821.59 226.324 1848.42 260.881 1870.56 301.239C1890.56 337.699 1906.15 377.696 1916.91 420.117L1915.95 420.36C1893.17 330.472 1848.49 251.948 1790.15 199.256C1762.69 174.387 1730.68 154.504 1697.58 141.757C1654.68 125.237 1618.64 119.975 1587.41 125.677C1575.2 127.906 1563.96 131.531 1553.06 136.757C1512.83 156.051 1488.32 198.67 1474.84 231.028C1466.59 250.689 1460.55 271.217 1454.71 291.069C1453.22 296.151 1451.67 301.408 1450.13 306.499C1445.98 320.2 1442.61 336.918 1439.04 354.619C1434.76 375.841 1429.91 399.893 1422.86 422.443C1414.8 448.279 1405 468.478 1392.92 484.195C1385.94 493.282 1377.91 501.016 1369.06 507.184C1359.55 513.816 1348.73 518.884 1336.92 522.244C1323.4 526.092 1309.83 527.622 1296.49 527.622Z" fill="#A1A1A1"/>
<path d="M1314.12 532.614C1304.26 532.614 1293.93 531.655 1283.02 529.742C1261.53 525.973 1240.96 519.135 1222.81 513.106C1199.93 505.504 1176.05 496.047 1151.82 485C1132.43 476.11 1113.43 466.397 1095.37 456.126C1043.51 426.679 998.841 387.525 949.967 343.119C945.624 339.173 941.213 335.148 936.949 331.252C920.155 315.921 902.792 300.069 885.101 285.09C843.297 249.772 798.065 227.4 750.658 218.595C690.859 207.486 626.092 217.07 558.162 247.083C523.305 262.485 489.071 281.9 459.163 303.234C436.644 319.298 418.108 338.237 398.482 358.289C396.488 360.327 394.486 362.371 392.472 364.423C387.461 369.536 382.063 375.024 376.572 380.517C365.057 392.077 351.024 405.248 334.259 415.263C315.49 426.476 296.215 432.127 275.334 432.536C237.11 433.289 198.2 420.639 160.57 408.405L159.138 407.94C140.714 401.953 121.224 395.905 103.53 392.232C49.5972 381.039 -6.61145 373.268 -54.7375 370.35L-54.6726 369.296C-6.49583 372.216 49.7636 379.993 103.744 391.197C121.489 394.881 141.013 400.939 159.465 406.934L160.898 407.399C198.445 419.604 237.276 432.223 275.314 431.476C319.244 430.614 349.583 406.114 375.825 379.765C381.316 374.274 386.708 368.786 391.719 363.676C393.733 361.626 395.735 359.58 397.729 357.545C417.388 337.459 435.959 318.486 458.551 302.369C488.516 280.992 522.814 261.54 557.737 246.111C589.607 232.031 620.97 222.329 650.948 217.278C685.202 211.509 718.816 211.599 750.855 217.549C798.443 226.388 843.842 248.839 885.786 284.279C903.491 299.271 920.863 315.129 937.666 330.469C941.93 334.361 946.341 338.386 950.684 342.332C999.509 386.696 1044.14 425.808 1095.9 455.204C1113.94 465.459 1132.9 475.158 1152.26 484.036C1176.46 495.066 1200.3 504.509 1223.15 512.099C1258.96 524 1303.52 538.806 1347.46 527.461C1370.9 521.41 1389.17 509.004 1403.32 489.533C1429.97 452.848 1437.68 397.553 1443.88 353.122C1446.3 335.816 1448.57 319.47 1451.67 306.166C1452.64 301.972 1453.62 297.651 1454.57 293.47C1459.51 271.755 1464.62 249.299 1472.27 227.584C1484.1 193.79 1506.56 148.584 1546.42 125.124C1557.43 118.647 1568.79 113.878 1581.14 110.546C1613.46 101.704 1651.94 104.565 1695.51 119.044C1729.96 130.497 1763.09 149.655 1791.3 174.451C1822.86 202.119 1849.9 237.009 1871.67 278.159C1881.66 297.033 1890.48 317.193 1897.9 338.076C1904.99 358.024 1910.84 378.739 1915.29 399.645L1914.25 399.865C1894.66 307.744 1850.75 227.973 1790.6 175.243C1762.49 150.54 1729.5 131.455 1695.17 120.045C1651.81 105.63 1613.53 102.778 1581.42 111.563C1569.15 114.87 1557.88 119.602 1546.96 126.032C1507.37 149.328 1485.04 194.303 1473.27 227.93C1465.63 249.589 1460.53 272.015 1455.6 293.702C1454.65 297.882 1453.67 302.206 1452.69 306.403C1449.62 319.662 1447.34 335.985 1444.93 353.266C1441.81 375.624 1438.28 400.964 1432.23 424.881C1425.29 452.363 1416.11 473.714 1404.17 490.153C1397.36 499.531 1389.39 507.44 1380.49 513.658C1370.9 520.358 1359.87 525.347 1347.73 528.482C1337.06 531.238 1325.93 532.614 1314.12 532.614Z" fill="#A1A1A1"/>
<path d="M1330.36 537.885C1318.55 537.885 1306.08 536.355 1292.77 533.285C1271.2 528.316 1250.45 520.068 1232.15 512.79C1209.1 503.63 1185.22 492.64 1161.19 480.122C1141.93 470.045 1123.06 459.17 1105.11 447.797C1055.73 416.524 1013.37 376.216 968.523 333.547C966.303 331.436 964.084 329.322 961.859 327.208C941.004 307.387 919.441 286.889 896.961 267.948C854.43 232.181 807.827 211.176 758.446 205.516C696.42 198.405 629.5 214.643 559.543 253.775C524.55 273.348 489.425 298.02 460.637 323.245C438.899 342.291 421.465 363.721 403.007 386.412C400.822 389.098 398.63 391.792 396.422 394.493C392.011 399.896 386.763 406.303 381.269 412.857C371.094 425.025 357.23 440.488 340.18 452.121C321.71 464.723 302.392 471.147 281.12 471.753C263.635 472.19 244.339 469.492 222.128 463.503C203.058 458.361 184.611 451.642 164.199 444.031C145.566 436.999 125.901 429.735 108.258 424.937C55.9978 410.726 0.795956 398.281 -55.8103 387.942L-55.6073 386.834C1.03284 397.176 56.2657 409.632 108.554 423.849C126.245 428.661 145.938 435.936 164.594 442.974C198.808 455.734 241.389 471.621 281.089 470.626C326.477 469.329 355.645 441.745 380.404 412.129C385.895 405.581 391.14 399.177 395.548 393.777C397.756 391.077 399.947 388.382 402.13 385.698C420.619 362.971 438.084 341.504 459.893 322.396C488.74 297.121 523.933 272.401 558.993 252.792C629.162 213.541 696.312 197.26 758.576 204.397C782.449 207.134 805.898 213.49 828.268 223.288C852.27 233.799 875.627 248.538 897.689 267.088C920.194 286.049 941.771 306.558 962.637 326.393C964.862 328.51 967.084 330.621 969.304 332.732C1014.11 375.365 1056.43 415.633 1105.72 446.847C1123.64 458.204 1142.48 469.064 1161.71 479.124C1185.71 491.622 1209.55 502.598 1232.57 511.745C1268.74 526.12 1313.76 544.01 1358.27 533.635C1382.38 528.014 1400.77 515.533 1414.48 495.481C1440.9 457.18 1445.6 398.673 1449.39 351.663C1450.74 334.849 1452.02 318.969 1454.13 306.127C1454.57 303.477 1455.01 300.814 1455.45 298.136C1459.4 273.949 1463.49 248.936 1470.6 224.526C1480.75 189.416 1501.06 141.808 1540.2 114.388C1551.12 106.738 1562.51 100.853 1575.03 96.3936C1592.44 90.1389 1611.83 87.199 1632.68 87.65C1651.71 88.0615 1672.03 91.2946 1693.07 97.2561C1728.76 107.367 1762.9 125.736 1791.78 150.377C1824.12 177.91 1851.37 213.138 1872.76 255.077C1882.58 274.321 1891.09 294.894 1898.04 316.226C1904.69 336.656 1909.95 357.836 1913.65 379.176L1912.54 379.368C1896.4 286.376 1852.11 203.225 1791.05 151.234C1762.29 126.7 1728.3 108.407 1692.76 98.3357C1648.93 85.9165 1608.35 85.6121 1575.41 97.4506C1562.98 101.876 1551.68 107.716 1540.84 115.307C1501.97 142.538 1481.78 189.901 1471.68 224.836C1464.59 249.181 1460.51 274.157 1456.56 298.313C1456.12 300.991 1455.68 303.658 1455.25 306.307C1453.13 319.101 1451.86 334.962 1450.51 351.75C1446.71 398.896 1442 457.572 1415.41 496.118C1408.8 505.783 1400.9 513.873 1391.92 520.156C1382.26 526.915 1371.02 531.819 1358.53 534.734C1349.5 536.831 1340.16 537.885 1330.36 537.885Z" fill="#A1A1A1"/>
<path d="M1345.63 543.373C1332.16 543.373 1317.9 541.197 1302.53 536.828C1280.78 530.647 1259.9 520.993 1241.48 512.478C1218.2 501.716 1194.34 489.187 1170.56 475.246C1151.43 463.999 1132.69 451.96 1114.85 439.471C1070.92 408.724 1033.38 371.058 993.629 331.179C987.131 324.66 980.41 317.92 973.744 311.294C950.308 288.011 930.296 268.813 908.815 250.804C865.526 214.564 817.555 194.927 766.231 192.435C701.739 189.303 632.659 212.191 560.914 260.461C525.273 284.443 490.179 313.842 462.099 343.246C440.945 365.398 424.407 389.512 406.9 415.041C404.731 418.204 402.554 421.378 400.363 424.554C396.46 430.223 391.293 437.692 385.96 445.181C363.517 476.773 334.196 509.298 286.899 510.961C285.424 511.009 283.944 511.032 282.466 511.032C245.533 511.032 207.828 496.422 169.253 480.111L166.845 479.085C147.738 470.933 129.689 463.235 112.983 457.632C50.0227 436.514 -10.8674 418.689 -56.8812 405.52L-56.5512 404.367C-10.5262 417.541 50.3808 435.37 113.363 456.496C130.115 462.113 148.184 469.822 167.316 477.982L169.722 479.009C209.709 495.918 248.759 511.001 286.857 509.766C333.629 508.12 362.705 475.846 384.982 444.491C390.312 437.007 395.473 429.543 399.376 423.878C401.567 420.698 403.741 417.527 405.91 414.365C423.446 388.796 440.009 364.643 461.23 342.42C489.367 312.954 524.532 283.496 560.243 259.466C593.389 237.165 626.545 220.041 658.791 208.566C695.789 195.4 731.957 189.571 766.287 191.237C817.876 193.74 866.09 213.474 909.582 249.883C931.094 267.92 951.126 287.137 974.584 310.439C981.254 317.066 987.974 323.809 994.475 330.328C1034.19 370.168 1071.69 407.797 1115.54 438.481C1133.35 450.957 1152.07 462.976 1171.16 474.205C1194.91 488.13 1218.73 500.639 1241.98 511.384C1278.46 528.254 1323.88 549.247 1369.07 539.796C1393.78 534.63 1412.28 522.075 1425.64 501.417C1451.73 461.372 1453.29 399.572 1454.56 349.915C1454.97 333.713 1455.36 318.408 1456.6 306.076L1456.63 305.794C1459.42 278.18 1462.3 249.626 1468.92 221.453C1474.64 196.88 1482.62 174.787 1492.62 155.784C1503.91 134.359 1517.81 116.815 1533.97 103.638C1544.78 94.8208 1556.21 87.8164 1568.92 82.2269C1603.26 67.037 1645.34 64.6918 1690.62 75.4508C1708.84 79.7803 1726.81 86.3394 1744.04 94.942C1761.37 103.595 1777.59 114.146 1792.26 126.294C1825.38 153.695 1852.84 189.255 1873.86 231.99C1892.76 270.4 1905.96 314.217 1912.02 358.698L1910.84 358.859C1897.86 263.655 1854.36 179.224 1791.49 127.216C1762.09 102.857 1727.11 85.3585 1690.34 76.6234C1645.33 65.9264 1603.51 68.2462 1569.41 83.3318C1556.79 88.879 1545.46 95.8271 1534.73 104.574C1504.57 129.178 1482.22 169.691 1470.09 221.732C1463.49 249.832 1460.61 278.346 1457.82 305.921L1457.8 306.203C1456.55 318.49 1456.17 333.773 1455.75 349.952C1454.49 399.761 1452.91 461.747 1426.65 502.074C1420.21 512.035 1412.36 520.299 1403.33 526.636C1393.59 533.468 1382.15 538.291 1369.32 540.977C1361.67 542.573 1353.8 543.373 1345.63 543.373Z" fill="#A1A1A1"/>
<path d="M287.777 550.276C271.262 550.276 253.278 547.06 232.981 540.493C212.814 533.967 192.87 524.959 174.319 516.198C170.96 514.603 167.627 513.01 164.316 511.429C147.835 503.556 132.268 496.121 117.718 490.328C59.7048 467.24 4.40717 446.489 -49.0715 426.426L-57.9325 423.1L-57.4869 421.913L-48.626 425.239C4.85556 445.308 60.1617 466.059 118.187 489.153C132.775 494.959 148.362 502.404 164.863 510.288C168.171 511.869 171.504 513.461 174.86 515.054C212.941 533.037 253.399 550.465 292.639 548.912C340.875 546.905 369.781 509.349 389.573 476.858C394.644 468.548 399.529 460.267 403.217 453.981C405.253 450.517 407.276 447.056 409.292 443.603C426.015 414.979 441.811 387.942 462.584 362.45C490.005 328.806 525.136 294.604 561.51 266.149C595.256 239.749 629.31 218.891 662.729 204.155C701.06 187.251 738.501 178.48 774.009 178.082C827.44 177.287 877.066 195.66 921.489 232.683C946.115 253.231 968.194 275.46 986.548 294.494C996.534 304.853 1006.52 315.471 1016.18 325.739C1050.37 362.092 1085.72 399.679 1125.37 430.124C1143.08 443.727 1161.67 456.907 1180.62 469.295C1204.07 484.592 1227.88 498.635 1251.4 511.032C1288.17 530.407 1333.92 554.521 1379.88 545.964C1405.18 541.254 1423.81 528.626 1436.81 507.359C1462.55 465.499 1460.81 400.313 1459.42 347.937C1459 332.448 1458.61 317.816 1459.08 306.037C1460.14 279.482 1461.73 248.62 1467.25 218.392C1471.9 192.779 1478.93 169.606 1488.12 149.52C1498.53 126.799 1511.86 107.75 1527.75 92.9013C1538.28 83.0612 1550.08 74.7095 1562.82 68.0743C1581 58.5753 1601.4 52.6025 1623.45 50.325C1644.11 48.1912 1665.89 49.313 1688.18 53.6567C1706.98 57.321 1725.51 63.3473 1743.26 71.5723C1761.12 79.8479 1777.77 90.1587 1792.74 102.217C1810.01 116.102 1825.88 132.498 1839.92 150.952C1853.23 168.437 1865.02 187.936 1874.97 208.907C1893.59 248.141 1905.84 292.862 1910.4 338.229L1909.13 338.356C1899.35 240.933 1856.63 155.225 1791.95 103.206C1762.32 79.3547 1725.38 62.2001 1687.94 54.9025C1641.63 45.8799 1598.57 50.8239 1563.41 69.1989C1550.77 75.7806 1539.07 84.0675 1528.62 93.8286C1498.68 121.807 1478.45 163.791 1468.5 218.621C1462.99 248.766 1461.4 279.575 1460.35 306.087C1459.88 317.824 1460.27 332.434 1460.68 347.903C1461.37 373.742 1462.15 403.031 1459.54 431.344C1456.5 464.199 1449.42 489.28 1437.9 508.021C1431.63 518.276 1423.84 526.718 1414.75 533.11C1404.94 540.016 1393.28 544.76 1380.12 547.21C1373.48 548.447 1366.84 549.008 1360.24 549.008C1320.74 549.008 1282.46 528.832 1250.81 512.151C1227.26 499.734 1203.41 485.672 1179.93 470.352C1160.95 457.947 1142.34 444.747 1124.6 431.125C1084.87 400.618 1049.48 362.991 1015.26 326.605C1005.6 316.339 995.617 305.724 985.637 295.371C967.309 276.359 945.261 254.161 920.68 233.653C876.497 196.826 827.161 178.561 774.029 179.345C690.589 180.281 612.831 227.604 562.294 267.142C525.993 295.54 490.933 329.669 463.572 363.245C442.86 388.661 427.087 415.656 410.389 444.234C408.373 447.687 406.348 451.149 404.312 454.616C400.62 460.904 395.733 469.191 390.659 477.509C382.351 491.149 369.308 511.004 352.031 525.886C343.641 533.113 334.713 538.793 325.494 542.77C315.214 547.204 304.176 549.696 292.692 550.172C291.065 550.242 289.427 550.276 287.777 550.276Z" fill="#A1A1A1"/>
<path d="M293.079 589.518C276.544 589.518 258.596 586.054 238.407 578.984C217.504 571.667 196.838 561.379 179.381 552.277C174.017 549.475 168.664 546.634 163.486 543.886C149.013 536.205 135.341 528.947 122.45 523.022C76.1574 501.741 30.1662 480.964 -14.3133 460.87C-29.0261 454.223 -44.2381 447.351 -58.9819 440.677L-58.4291 439.456C-43.6853 446.131 -28.4734 453.003 -13.7606 459.649C30.719 479.744 76.7158 500.523 123.012 521.807C135.936 527.749 149.625 535.013 164.115 542.705C169.29 545.453 174.643 548.292 180.001 551.093C216.207 569.962 258.202 589.935 298.414 588.055C347.787 585.693 375.517 544.684 394.164 509.222C398.945 500.137 403.567 491.016 407.058 484.085C408.852 480.527 410.634 476.973 412.414 473.427C428.41 441.534 443.517 411.41 463.941 382.482C490.504 344.858 525.606 305.918 562.776 272.835C614.54 226.961 694.545 171.004 781.728 164.935C837.172 160.972 888.203 177.98 933.396 215.491C953.701 232.353 973.781 251.802 998.508 278.56C1011 292.081 1023.4 306.096 1035.4 319.645C1066.6 354.898 1098.85 391.352 1135.2 421.78C1152.81 436.525 1171.27 450.864 1190.08 464.399C1212.85 480.773 1236.65 496.349 1260.83 510.696C1297.96 532.6 1344.17 559.865 1390.69 552.148C1416.2 548.004 1435.47 534.939 1447.98 513.32C1473.36 469.566 1467.92 397.982 1463.94 345.715C1462.82 331.047 1461.77 317.193 1461.56 306.017C1461.1 281.178 1461.14 248.428 1465.59 215.351C1473.26 158.032 1492.09 113.227 1521.54 82.1843C1531.86 71.2478 1543.7 61.746 1556.72 53.941C1575.24 42.8241 1596.14 35.3461 1618.84 31.7184C1640.23 28.3022 1662.73 28.3557 1685.74 31.8791C1705.15 34.9177 1724.23 40.4254 1742.47 48.2444C1760.88 56.1424 1777.96 66.2051 1793.23 78.1536C1810.88 91.9595 1827 108.412 1841.15 127.058C1854.56 144.728 1866.31 164.504 1876.08 185.842C1894.41 225.901 1905.71 271.524 1908.77 317.779L1907.44 317.866C1900.85 218.22 1858.92 131.232 1792.4 79.2106C1762.24 55.6097 1724.29 39.2697 1685.54 33.2039C1637.76 25.8894 1593.45 33.4576 1557.41 55.091C1544.5 62.8312 1532.76 72.2569 1522.52 83.106C1493.26 113.942 1474.55 158.495 1466.92 215.531C1462.48 248.518 1462.44 281.204 1462.9 305.994C1463.11 317.131 1464.16 330.968 1465.28 345.616C1467.33 372.634 1469.66 403.259 1468.33 433.156C1466.78 467.97 1460.5 494.412 1449.14 513.994C1443.03 524.555 1435.31 533.181 1426.17 539.63C1416.27 546.623 1404.41 551.279 1390.92 553.472C1369.99 556.942 1347.47 553.825 1322.06 543.94C1299.98 535.345 1278.82 522.864 1260.15 511.854C1235.94 497.487 1212.1 481.889 1189.3 465.493C1170.47 451.937 1151.98 437.579 1134.34 422.815C1097.92 392.325 1065.62 355.831 1034.39 320.541C1022.41 306.995 1010.01 292.989 997.526 279.479C972.842 252.769 952.799 233.356 932.541 216.534C887.616 179.237 836.91 162.331 781.818 166.269C695.011 172.315 615.271 228.099 563.662 273.836C526.565 306.851 491.536 345.709 465.029 383.254C444.662 412.101 429.577 442.182 413.607 474.027C411.827 477.576 410.045 481.131 408.251 484.688C404.757 491.625 400.132 500.754 395.346 509.847C376.536 545.625 348.526 587.001 298.473 589.394C296.694 589.476 294.892 589.518 293.079 589.518Z" fill="#A1A1A1"/>
<path d="M298.487 628.763C253.308 628.763 205.904 601.03 163.881 576.442C150.967 568.888 138.77 561.751 127.179 555.716L-60.0312 458.254L-59.3798 457.006L127.831 554.468C139.453 560.517 151.664 567.662 164.595 575.227C208.242 600.765 257.716 629.71 304.19 627.201C354.651 624.481 381.234 580.019 398.755 541.592C404.486 529.023 410.019 516.235 415.372 503.866C430.011 470.042 445.147 435.065 465.291 402.512C481.287 376.665 501.158 349.557 522.755 324.124C546.447 296.222 571.814 270.623 598.146 248.039C627.18 223.142 656.701 202.546 685.887 186.826C718.169 169.44 749.972 158.089 780.419 153.086C841.41 143.066 896.883 158.272 945.291 198.289C985.521 231.541 1019.71 272.661 1052.78 312.427C1081.56 347.04 1111.32 382.829 1145.02 413.423C1183.95 448.758 1226.08 481.368 1270.25 510.341C1307.46 534.754 1353.77 565.139 1401.5 558.31C1441.81 552.542 1465.12 525.585 1472.75 475.891C1479.25 433.622 1473.07 383.48 1468.11 343.193C1466.42 329.463 1464.82 316.494 1464.04 305.977C1459.71 248.003 1462.47 200.144 1472.47 159.67C1478.7 134.418 1487.91 111.908 1499.82 92.766C1513.13 71.3834 1530.22 53.558 1550.61 39.7859C1568.25 27.8713 1588.13 19.2179 1609.7 14.0654C1630.23 9.16083 1651.85 7.51754 1673.96 9.18057C1717.43 12.4502 1759.96 28.3928 1793.7 54.0682C1811.73 67.7924 1828.11 84.3043 1842.37 103.142C1855.88 120.995 1867.59 141.05 1877.17 162.754C1895.21 203.639 1905.57 250.167 1907.13 297.304L1905.72 297.352C1902.4 196.973 1860.2 106.445 1792.84 55.1929C1721.31 0.763951 1619.77 -5.22576 1551.39 40.9557C1483.67 86.703 1455.55 173.358 1465.44 305.873C1466.22 316.356 1467.82 329.308 1469.51 343.021C1474.48 383.396 1480.67 433.644 1474.14 476.105C1470.59 499.233 1463.45 517.819 1452.92 531.352C1447 538.959 1439.86 545.177 1431.7 549.828C1423.02 554.778 1412.93 558.101 1401.7 559.708C1397.11 560.364 1392.44 560.694 1387.7 560.694C1370.4 560.694 1351.98 556.322 1331.79 547.466C1309.05 537.488 1287.1 523.09 1269.47 511.522C1225.24 482.506 1183.05 449.855 1144.07 414.469C1110.29 383.81 1080.5 347.979 1051.69 313.329C1018.66 273.613 984.514 232.545 944.386 199.377C896.302 159.634 841.21 144.526 780.639 154.478C658.114 174.61 531.901 297.55 466.481 403.256C446.391 435.719 431.274 470.648 416.655 504.427C411.299 516.801 405.763 529.598 400.027 542.178C388.394 567.69 376.905 585.958 363.87 599.663C355.734 608.214 346.907 614.957 337.634 619.701C327.323 624.974 316.094 627.974 304.254 628.613C302.342 628.712 300.416 628.763 298.487 628.763Z" fill="#A1A1A1"/>
</g>
</svg>
